%TF.GenerationSoftware,KiCad,Pcbnew,8.0.7-8.0.7-0~ubuntu20.04.1*%
%TF.CreationDate,2025-01-31T01:02:46+05:30*%
%TF.ProjectId,Buck_Converter_12V_3V3,4275636b-5f43-46f6-9e76-65727465725f,rev?*%
%TF.SameCoordinates,Original*%
%TF.FileFunction,Copper,L1,Top*%
%TF.FilePolarity,Positive*%
%FSLAX46Y46*%
G04 Gerber Fmt 4.6, Leading zero omitted, Abs format (unit mm)*
G04 Created by KiCad (PCBNEW 8.0.7-8.0.7-0~ubuntu20.04.1) date 2025-01-31 01:02:46*
%MOMM*%
%LPD*%
G01*
G04 APERTURE LIST*
G04 Aperture macros list*
%AMRoundRect*
0 Rectangle with rounded corners*
0 $1 Rounding radius*
0 $2 $3 $4 $5 $6 $7 $8 $9 X,Y pos of 4 corners*
0 Add a 4 corners polygon primitive as box body*
4,1,4,$2,$3,$4,$5,$6,$7,$8,$9,$2,$3,0*
0 Add four circle primitives for the rounded corners*
1,1,$1+$1,$2,$3*
1,1,$1+$1,$4,$5*
1,1,$1+$1,$6,$7*
1,1,$1+$1,$8,$9*
0 Add four rect primitives between the rounded corners*
20,1,$1+$1,$2,$3,$4,$5,0*
20,1,$1+$1,$4,$5,$6,$7,0*
20,1,$1+$1,$6,$7,$8,$9,0*
20,1,$1+$1,$8,$9,$2,$3,0*%
G04 Aperture macros list end*
%TA.AperFunction,ComponentPad*%
%ADD10C,1.498600*%
%TD*%
%TA.AperFunction,ComponentPad*%
%ADD11O,2.500000X5.000000*%
%TD*%
%TA.AperFunction,ComponentPad*%
%ADD12O,2.250000X4.500000*%
%TD*%
%TA.AperFunction,ComponentPad*%
%ADD13O,4.500000X2.250000*%
%TD*%
%TA.AperFunction,ComponentPad*%
%ADD14R,1.700000X1.700000*%
%TD*%
%TA.AperFunction,ComponentPad*%
%ADD15O,1.700000X1.700000*%
%TD*%
%TA.AperFunction,ComponentPad*%
%ADD16R,1.400000X2.000001*%
%TD*%
%TA.AperFunction,ComponentPad*%
%ADD17O,1.400000X2.000001*%
%TD*%
%TA.AperFunction,SMDPad,CuDef*%
%ADD18R,2.500000X6.500000*%
%TD*%
%TA.AperFunction,SMDPad,CuDef*%
%ADD19RoundRect,0.250000X-0.412500X-0.650000X0.412500X-0.650000X0.412500X0.650000X-0.412500X0.650000X0*%
%TD*%
%TA.AperFunction,SMDPad,CuDef*%
%ADD20RoundRect,0.250000X0.625000X-0.400000X0.625000X0.400000X-0.625000X0.400000X-0.625000X-0.400000X0*%
%TD*%
%TA.AperFunction,SMDPad,CuDef*%
%ADD21RoundRect,0.237500X-0.237500X0.250000X-0.237500X-0.250000X0.237500X-0.250000X0.237500X0.250000X0*%
%TD*%
%TA.AperFunction,SMDPad,CuDef*%
%ADD22R,5.100000X17.800000*%
%TD*%
%TA.AperFunction,SMDPad,CuDef*%
%ADD23RoundRect,0.250000X0.650000X-0.412500X0.650000X0.412500X-0.650000X0.412500X-0.650000X-0.412500X0*%
%TD*%
%TA.AperFunction,SMDPad,CuDef*%
%ADD24R,2.561399X3.180001*%
%TD*%
%TA.AperFunction,SMDPad,CuDef*%
%ADD25RoundRect,0.237500X0.237500X-0.300000X0.237500X0.300000X-0.237500X0.300000X-0.237500X-0.300000X0*%
%TD*%
%TA.AperFunction,ViaPad*%
%ADD26C,0.600000*%
%TD*%
%TA.AperFunction,Conductor*%
%ADD27C,1.000000*%
%TD*%
%TA.AperFunction,Conductor*%
%ADD28C,0.200000*%
%TD*%
G04 APERTURE END LIST*
D10*
%TO.P,RV1,1,1*%
%TO.N,Net-(J2-Pin_1)*%
X101990000Y-56960000D03*
%TO.P,RV1,2,2*%
%TO.N,Net-(U1-FB)*%
X106990000Y-59460000D03*
%TO.P,RV1,3,3*%
%TO.N,GND*%
X101990000Y-61959990D03*
%TD*%
D11*
%TO.P,J1,1*%
%TO.N,Net-(U1-VIN)*%
X81880000Y-75210000D03*
D12*
%TO.P,J1,2*%
%TO.N,GND*%
X75880000Y-75210000D03*
D13*
%TO.P,J1,3*%
X78880000Y-79910000D03*
%TD*%
D14*
%TO.P,J3,1,Pin_1*%
%TO.N,GND*%
X160890000Y-74530000D03*
D15*
%TO.P,J3,2,Pin_2*%
X160890000Y-77070000D03*
%TO.P,J3,3,Pin_3*%
X160890000Y-79610000D03*
%TO.P,J3,4,Pin_4*%
X160890000Y-82150000D03*
%TO.P,J3,5,Pin_5*%
X160890000Y-84690000D03*
%TD*%
D14*
%TO.P,J2,1,Pin_1*%
%TO.N,Net-(J2-Pin_1)*%
X153020000Y-74530000D03*
D15*
%TO.P,J2,2,Pin_2*%
X153020000Y-77070000D03*
%TO.P,J2,3,Pin_3*%
X153020000Y-79610000D03*
%TO.P,J2,4,Pin_4*%
X153020000Y-82150000D03*
%TO.P,J2,5,Pin_5*%
X153020000Y-84690000D03*
%TD*%
D16*
%TO.P,U1,1,VIN*%
%TO.N,Net-(U1-VIN)*%
X104659999Y-72010000D03*
D17*
%TO.P,U1,2,OUT*%
%TO.N,Net-(D1-K)*%
X106359999Y-72010000D03*
%TO.P,U1,3,GND*%
%TO.N,GND*%
X108060000Y-72010000D03*
%TO.P,U1,4,FB*%
%TO.N,Net-(U1-FB)*%
X109759999Y-72010000D03*
%TO.P,U1,5,ON_OFF_N*%
%TO.N,Net-(U1-ON_OFF_N)*%
X111459999Y-72010000D03*
%TD*%
D18*
%TO.P,C1,1*%
%TO.N,Net-(U1-VIN)*%
X95950000Y-75520000D03*
%TO.P,C1,2*%
%TO.N,GND*%
X95950000Y-88020000D03*
%TD*%
D19*
%TO.P,C4,1*%
%TO.N,Net-(J2-Pin_1)*%
X143275000Y-103070000D03*
%TO.P,C4,2*%
%TO.N,GND*%
X146400000Y-103070000D03*
%TD*%
D20*
%TO.P,R1,1*%
%TO.N,Net-(U1-ON_OFF_N)*%
X111580000Y-61310000D03*
%TO.P,R1,2*%
%TO.N,GND*%
X111580000Y-58210000D03*
%TD*%
D18*
%TO.P,C5,1*%
%TO.N,Net-(J2-Pin_1)*%
X137120000Y-73970000D03*
%TO.P,C5,2*%
%TO.N,GND*%
X137120000Y-61470000D03*
%TD*%
D21*
%TO.P,C6,2*%
%TO.N,GND*%
X148640000Y-90080000D03*
%TO.P,C6,1*%
%TO.N,Net-(J2-Pin_1)*%
X148640000Y-88255000D03*
%TD*%
D22*
%TO.P,L1,1,1*%
%TO.N,Net-(D1-K)*%
X114050000Y-91850000D03*
%TO.P,L1,2,2*%
%TO.N,Net-(J2-Pin_1)*%
X142050000Y-91850000D03*
%TD*%
D23*
%TO.P,C3,1*%
%TO.N,Net-(U1-VIN)*%
X94660000Y-70110000D03*
%TO.P,C3,2*%
%TO.N,GND*%
X94660000Y-66985000D03*
%TD*%
%TO.P,C7,1*%
%TO.N,Net-(J2-Pin_1)*%
X148480000Y-71945000D03*
%TO.P,C7,2*%
%TO.N,GND*%
X148480000Y-68820000D03*
%TD*%
D24*
%TO.P,D1,1,K*%
%TO.N,Net-(D1-K)*%
X104480000Y-97490000D03*
%TO.P,D1,2,A*%
%TO.N,GND*%
X98403400Y-97490000D03*
%TD*%
D25*
%TO.P,C2,1*%
%TO.N,Net-(U1-VIN)*%
X99500000Y-69725000D03*
%TO.P,C2,2*%
%TO.N,GND*%
X99500000Y-68000000D03*
%TD*%
D26*
%TO.N,GND*%
X153430000Y-94740000D03*
X156510000Y-94740000D03*
X150350000Y-94740000D03*
X154970000Y-94740000D03*
X151890000Y-94740000D03*
X150350000Y-99000000D03*
X153430000Y-100540000D03*
X156510000Y-100540000D03*
X154970000Y-95920000D03*
X153430000Y-99000000D03*
X151890000Y-97460000D03*
X156510000Y-95920000D03*
X150350000Y-100540000D03*
X151890000Y-99000000D03*
X154970000Y-99000000D03*
X154970000Y-97460000D03*
X150350000Y-95920000D03*
X156510000Y-99000000D03*
X151890000Y-95920000D03*
X153430000Y-97460000D03*
X156510000Y-97460000D03*
X154970000Y-100540000D03*
X151890000Y-100540000D03*
X150350000Y-97460000D03*
X153430000Y-95920000D03*
X141340000Y-55070000D03*
X90760000Y-103030000D03*
X148290000Y-63090000D03*
X86140000Y-92570000D03*
X86140000Y-95650000D03*
X120390000Y-103750000D03*
X117610000Y-70740000D03*
X84600000Y-92570000D03*
X86140000Y-101490000D03*
X120390000Y-100670000D03*
X142880000Y-56610000D03*
X121930000Y-105290000D03*
X96180000Y-57800000D03*
X154420000Y-56840000D03*
X84600000Y-94110000D03*
X90760000Y-89680000D03*
X90240000Y-60910000D03*
X123480000Y-83940000D03*
X84600000Y-99950000D03*
X119150000Y-75360000D03*
X120430000Y-81040000D03*
X93320000Y-59370000D03*
X93320000Y-56290000D03*
X94640000Y-60880000D03*
X120430000Y-79500000D03*
X133860000Y-53560000D03*
X120400000Y-96060000D03*
X120400000Y-91580000D03*
X87680000Y-94110000D03*
X149830000Y-61550000D03*
X90760000Y-99950000D03*
X120400000Y-87020000D03*
X120400000Y-94520000D03*
X90240000Y-57830000D03*
X84600000Y-89680000D03*
X121970000Y-79500000D03*
X123470000Y-102210000D03*
X120400000Y-93120000D03*
X116070000Y-73820000D03*
X135400000Y-55100000D03*
X142880000Y-53530000D03*
X119150000Y-72280000D03*
X117610000Y-73820000D03*
X84600000Y-98410000D03*
X120690000Y-75360000D03*
X90760000Y-97190000D03*
X153430000Y-101730000D03*
X154230000Y-59980000D03*
X139800000Y-53530000D03*
X125050000Y-79500000D03*
X121940000Y-90040000D03*
X122010000Y-73790000D03*
X126630000Y-72250000D03*
X154230000Y-61520000D03*
X126630000Y-70710000D03*
X87680000Y-98410000D03*
X126560000Y-94520000D03*
X152910000Y-64630000D03*
X126550000Y-105290000D03*
X149800000Y-58380000D03*
X120430000Y-76420000D03*
X120700000Y-64480000D03*
X123480000Y-93120000D03*
X125020000Y-96060000D03*
X84600000Y-97190000D03*
X125010000Y-103750000D03*
X135400000Y-56640000D03*
X132320000Y-56640000D03*
X119160000Y-61400000D03*
X150350000Y-103270000D03*
X125020000Y-99140000D03*
X121940000Y-83940000D03*
X148290000Y-61550000D03*
X93320000Y-57830000D03*
X149830000Y-64630000D03*
X87680000Y-91220000D03*
X139800000Y-56610000D03*
X154230000Y-64600000D03*
X87650000Y-85280000D03*
X126630000Y-69170000D03*
X126590000Y-79500000D03*
X141340000Y-56610000D03*
X120390000Y-102210000D03*
X132320000Y-53560000D03*
X117620000Y-61400000D03*
X149830000Y-66170000D03*
X89220000Y-91220000D03*
X87680000Y-97190000D03*
X90240000Y-56290000D03*
X86140000Y-97190000D03*
X136940000Y-53560000D03*
X125020000Y-93120000D03*
X90730000Y-85280000D03*
X123550000Y-70710000D03*
X125020000Y-88500000D03*
X93320000Y-62450000D03*
X120690000Y-73820000D03*
X125090000Y-72250000D03*
X151340000Y-58380000D03*
X125020000Y-94520000D03*
X120400000Y-82400000D03*
X156510000Y-103270000D03*
X123510000Y-77960000D03*
X88700000Y-62450000D03*
X120700000Y-66020000D03*
X86140000Y-103030000D03*
X116070000Y-72280000D03*
X151370000Y-61550000D03*
X126560000Y-85480000D03*
X125010000Y-102210000D03*
X126550000Y-102210000D03*
X149800000Y-53760000D03*
X93320000Y-60910000D03*
X153430000Y-103270000D03*
X154230000Y-66140000D03*
X126550000Y-100670000D03*
X151370000Y-66170000D03*
X119160000Y-66020000D03*
X126630000Y-73790000D03*
X89220000Y-86600000D03*
X154420000Y-58380000D03*
X89220000Y-101490000D03*
X117620000Y-67560000D03*
X84570000Y-85280000D03*
X125090000Y-75330000D03*
X89220000Y-103030000D03*
X121940000Y-87020000D03*
X120390000Y-105290000D03*
X121930000Y-103750000D03*
X152910000Y-66170000D03*
X90240000Y-62450000D03*
X120400000Y-85480000D03*
X154230000Y-63060000D03*
X90760000Y-86600000D03*
X125020000Y-82400000D03*
X123480000Y-96060000D03*
X123480000Y-85480000D03*
X91780000Y-56290000D03*
X120690000Y-72280000D03*
X126560000Y-99140000D03*
X125090000Y-73790000D03*
X136940000Y-55100000D03*
X87680000Y-88140000D03*
X87680000Y-92570000D03*
X121930000Y-102210000D03*
X126560000Y-90040000D03*
X125020000Y-90040000D03*
X89220000Y-92570000D03*
X152910000Y-63090000D03*
X120700000Y-61400000D03*
X86140000Y-98410000D03*
X96180000Y-56260000D03*
X86140000Y-91220000D03*
X123510000Y-79500000D03*
X121940000Y-99140000D03*
X126550000Y-103750000D03*
X120400000Y-99140000D03*
X148260000Y-53760000D03*
X86140000Y-86600000D03*
X120700000Y-67560000D03*
X151890000Y-101730000D03*
X86140000Y-99950000D03*
X152880000Y-56840000D03*
X120400000Y-88500000D03*
X135400000Y-53560000D03*
X148260000Y-56840000D03*
X120400000Y-97600000D03*
X141340000Y-53530000D03*
X122010000Y-75330000D03*
X120700000Y-62940000D03*
X86140000Y-88140000D03*
X96180000Y-59340000D03*
X126560000Y-93120000D03*
X116080000Y-64480000D03*
X152910000Y-61550000D03*
X125050000Y-76420000D03*
X87680000Y-86600000D03*
X148260000Y-55300000D03*
X132320000Y-55100000D03*
X87680000Y-89680000D03*
X88700000Y-60910000D03*
X149830000Y-63090000D03*
X94640000Y-57800000D03*
X94640000Y-56260000D03*
X150350000Y-101730000D03*
X126560000Y-97600000D03*
X123550000Y-72250000D03*
X90760000Y-92570000D03*
X152910000Y-60010000D03*
X126560000Y-83940000D03*
X151370000Y-64630000D03*
X117620000Y-64480000D03*
X123480000Y-94520000D03*
X139800000Y-55070000D03*
X125020000Y-83940000D03*
X138260000Y-56610000D03*
X119150000Y-70740000D03*
X84600000Y-103030000D03*
X121970000Y-77960000D03*
X89220000Y-97190000D03*
X122010000Y-70710000D03*
X154970000Y-103270000D03*
X126560000Y-82400000D03*
X91780000Y-62450000D03*
X148260000Y-58380000D03*
X116080000Y-66020000D03*
X125010000Y-105290000D03*
X125020000Y-85480000D03*
X119150000Y-69200000D03*
X90760000Y-91220000D03*
X123510000Y-81040000D03*
X126590000Y-76420000D03*
X121970000Y-81040000D03*
X87680000Y-103030000D03*
X91780000Y-60910000D03*
X91780000Y-57830000D03*
X96180000Y-60880000D03*
X89220000Y-95650000D03*
X123550000Y-69170000D03*
X126590000Y-81040000D03*
X151370000Y-63090000D03*
X116070000Y-69200000D03*
X123480000Y-88500000D03*
X89220000Y-89680000D03*
X122010000Y-72250000D03*
X87680000Y-95650000D03*
X116080000Y-61400000D03*
X123550000Y-75330000D03*
X86140000Y-89680000D03*
X123470000Y-105290000D03*
X84600000Y-91220000D03*
X89190000Y-85280000D03*
X123480000Y-91580000D03*
X88700000Y-57830000D03*
X136940000Y-56640000D03*
X120400000Y-90040000D03*
X151340000Y-55300000D03*
X125020000Y-87020000D03*
X126630000Y-75330000D03*
X126560000Y-91580000D03*
X84600000Y-88140000D03*
X116080000Y-62940000D03*
X154420000Y-55300000D03*
X126590000Y-77960000D03*
X121940000Y-85480000D03*
X133860000Y-55100000D03*
X116070000Y-70740000D03*
X123480000Y-99140000D03*
X90240000Y-59370000D03*
X117610000Y-75360000D03*
X96180000Y-62420000D03*
X90760000Y-95650000D03*
X148290000Y-60010000D03*
X151340000Y-56840000D03*
X90760000Y-94110000D03*
X121970000Y-76420000D03*
X133860000Y-56640000D03*
X121940000Y-94520000D03*
X91780000Y-59370000D03*
X88700000Y-59370000D03*
X125090000Y-69170000D03*
X123550000Y-73790000D03*
X121940000Y-91580000D03*
X156510000Y-101730000D03*
X88700000Y-56290000D03*
X119160000Y-67560000D03*
X121930000Y-100670000D03*
X149800000Y-55300000D03*
X89220000Y-99950000D03*
X87680000Y-99950000D03*
X149800000Y-56840000D03*
X125020000Y-91580000D03*
X123480000Y-87020000D03*
X121940000Y-82400000D03*
X89220000Y-88140000D03*
X89220000Y-94110000D03*
X90760000Y-101490000D03*
X121940000Y-97600000D03*
X151890000Y-103270000D03*
X120400000Y-83940000D03*
X154970000Y-101730000D03*
X152880000Y-53760000D03*
X84600000Y-95650000D03*
X119160000Y-62940000D03*
X117610000Y-69200000D03*
X148290000Y-64630000D03*
X125050000Y-81040000D03*
X84600000Y-101490000D03*
X123480000Y-90040000D03*
X125020000Y-97600000D03*
X117620000Y-66020000D03*
X116070000Y-75360000D03*
X116080000Y-67560000D03*
X89220000Y-98410000D03*
X154420000Y-53760000D03*
X94640000Y-62420000D03*
X84600000Y-86600000D03*
X123510000Y-76420000D03*
X94640000Y-59340000D03*
X125090000Y-70710000D03*
X121940000Y-88500000D03*
X121940000Y-96060000D03*
X117610000Y-72280000D03*
X90760000Y-88140000D03*
X123470000Y-100670000D03*
X123470000Y-103750000D03*
X125050000Y-77960000D03*
X126560000Y-96060000D03*
X119150000Y-73820000D03*
X87680000Y-101490000D03*
X142880000Y-55070000D03*
X151370000Y-60010000D03*
X138260000Y-55070000D03*
X148290000Y-66170000D03*
X125010000Y-100670000D03*
X152880000Y-55300000D03*
X122010000Y-69170000D03*
X138260000Y-53530000D03*
X149830000Y-60010000D03*
X126560000Y-87020000D03*
X120690000Y-69200000D03*
X119160000Y-64480000D03*
X126560000Y-88500000D03*
X90760000Y-98410000D03*
X86110000Y-85280000D03*
X86140000Y-94110000D03*
X123480000Y-82400000D03*
X152880000Y-58380000D03*
X123480000Y-97600000D03*
X151340000Y-53760000D03*
X121940000Y-93120000D03*
X120430000Y-77960000D03*
X120690000Y-70740000D03*
X117620000Y-62940000D03*
%TD*%
D27*
%TO.N,Net-(U1-FB)*%
X108950000Y-67390000D02*
X108950000Y-61420000D01*
X108950000Y-61420000D02*
X106990000Y-59460000D01*
%TO.N,Net-(J2-Pin_1)*%
X137120000Y-73970000D02*
X137120000Y-71620000D01*
X137120000Y-71620000D02*
X119980000Y-54480000D01*
X119980000Y-54480000D02*
X104470000Y-54480000D01*
X104470000Y-54480000D02*
X101990000Y-56960000D01*
D28*
X137120000Y-73970000D02*
X135490000Y-72340000D01*
X135490000Y-72340000D02*
X135490000Y-71370000D01*
D27*
%TO.N,Net-(U1-ON_OFF_N)*%
X111620000Y-61590000D02*
X111620000Y-71820000D01*
D28*
X111620000Y-71820000D02*
X111800000Y-72000000D01*
D27*
X111890000Y-61240000D02*
X111900000Y-61250000D01*
X111890000Y-61320000D02*
X111620000Y-61590000D01*
%TO.N,Net-(U1-FB)*%
X110100000Y-68540000D02*
X108950000Y-67390000D01*
X110100000Y-72000000D02*
X110100000Y-68540000D01*
%TD*%
%TA.AperFunction,Conductor*%
%TO.N,Net-(U1-VIN)*%
G36*
X103516554Y-69019574D02*
G01*
X103536389Y-69035176D01*
X105262669Y-70703913D01*
X105297188Y-70764660D01*
X105300481Y-70791919D01*
X105303414Y-71108405D01*
X105289905Y-71165847D01*
X105247453Y-71249165D01*
X105247452Y-71249167D01*
X105189058Y-71428881D01*
X105159499Y-71615513D01*
X105159499Y-72404486D01*
X105189058Y-72591118D01*
X105247453Y-72770836D01*
X105306908Y-72887521D01*
X105320418Y-72942667D01*
X105320589Y-72961116D01*
X105301526Y-73028335D01*
X105262294Y-73067429D01*
X105240272Y-73081186D01*
X105240264Y-73081192D01*
X105186879Y-73126266D01*
X105186872Y-73126272D01*
X105091277Y-73233776D01*
X105091275Y-73233779D01*
X105029829Y-73363883D01*
X105009292Y-73430646D01*
X105009287Y-73430662D01*
X104986987Y-73572805D01*
X104986987Y-73572808D01*
X104914180Y-79251650D01*
X104893637Y-79318431D01*
X104840251Y-79363505D01*
X104791044Y-79374057D01*
X82216170Y-79529612D01*
X82148997Y-79510390D01*
X82122667Y-79488030D01*
X80661638Y-77845567D01*
X80631789Y-77782394D01*
X80630289Y-77762398D01*
X80657819Y-73233776D01*
X80669738Y-71273030D01*
X80689830Y-71206114D01*
X80696855Y-71196390D01*
X82303086Y-69186197D01*
X82360311Y-69146114D01*
X82399132Y-69139608D01*
X99118011Y-69028992D01*
X99131380Y-69029628D01*
X99213323Y-69038000D01*
X99786676Y-69037999D01*
X99786684Y-69037998D01*
X99786687Y-69037998D01*
X99799968Y-69036641D01*
X99887753Y-69027674D01*
X99887767Y-69027669D01*
X99893512Y-69026440D01*
X99918648Y-69023695D01*
X103449388Y-69000334D01*
X103516554Y-69019574D01*
G37*
%TD.AperFunction*%
%TD*%
%TA.AperFunction,Conductor*%
%TO.N,GND*%
G36*
X170466922Y-51831280D02*
G01*
X170557266Y-51841459D01*
X170584331Y-51847636D01*
X170663540Y-51875352D01*
X170688553Y-51887398D01*
X170759606Y-51932043D01*
X170781313Y-51949355D01*
X170840644Y-52008686D01*
X170857957Y-52030395D01*
X170902600Y-52101444D01*
X170914648Y-52126462D01*
X170942362Y-52205666D01*
X170948540Y-52232735D01*
X170958720Y-52323076D01*
X170959500Y-52336961D01*
X170959500Y-112093038D01*
X170958720Y-112106923D01*
X170948540Y-112197264D01*
X170942362Y-112224333D01*
X170914648Y-112303537D01*
X170902600Y-112328555D01*
X170857957Y-112399604D01*
X170840644Y-112421313D01*
X170781313Y-112480644D01*
X170759604Y-112497957D01*
X170688555Y-112542600D01*
X170663537Y-112554648D01*
X170584333Y-112582362D01*
X170557264Y-112588540D01*
X170477075Y-112597576D01*
X170466921Y-112598720D01*
X170453038Y-112599500D01*
X73026962Y-112599500D01*
X73013078Y-112598720D01*
X73000553Y-112597308D01*
X72922735Y-112588540D01*
X72895666Y-112582362D01*
X72816462Y-112554648D01*
X72791444Y-112542600D01*
X72720395Y-112497957D01*
X72698686Y-112480644D01*
X72639355Y-112421313D01*
X72622042Y-112399604D01*
X72577399Y-112328555D01*
X72565351Y-112303537D01*
X72537637Y-112224333D01*
X72531459Y-112197263D01*
X72521280Y-112106922D01*
X72520500Y-112093038D01*
X72520500Y-107889996D01*
X75204415Y-107889996D01*
X75204415Y-107890003D01*
X75224738Y-108238927D01*
X75224739Y-108238938D01*
X75285428Y-108583127D01*
X75285430Y-108583134D01*
X75385674Y-108917972D01*
X75524107Y-109238895D01*
X75524113Y-109238908D01*
X75698870Y-109541597D01*
X75907584Y-109821949D01*
X75907589Y-109821955D01*
X75952114Y-109869148D01*
X76147442Y-110076183D01*
X76323903Y-110224251D01*
X76415186Y-110300847D01*
X76415194Y-110300853D01*
X76707203Y-110492911D01*
X76707207Y-110492913D01*
X77019549Y-110649777D01*
X77347989Y-110769319D01*
X77688086Y-110849923D01*
X78035241Y-110890500D01*
X78035248Y-110890500D01*
X78384752Y-110890500D01*
X78384759Y-110890500D01*
X78731914Y-110849923D01*
X79072011Y-110769319D01*
X79400451Y-110649777D01*
X79712793Y-110492913D01*
X80004811Y-110300849D01*
X80272558Y-110076183D01*
X80512412Y-109821953D01*
X80721130Y-109541596D01*
X80895889Y-109238904D01*
X81034326Y-108917971D01*
X81134569Y-108583136D01*
X81195262Y-108238927D01*
X81215585Y-107890000D01*
X81215585Y-107889996D01*
X162664415Y-107889996D01*
X162664415Y-107890003D01*
X162684738Y-108238927D01*
X162684739Y-108238938D01*
X162745428Y-108583127D01*
X162745430Y-108583134D01*
X162845674Y-108917972D01*
X162984107Y-109238895D01*
X162984113Y-109238908D01*
X163158870Y-109541597D01*
X163367584Y-109821949D01*
X163367589Y-109821955D01*
X163412114Y-109869148D01*
X163607442Y-110076183D01*
X163783903Y-110224251D01*
X163875186Y-110300847D01*
X163875194Y-110300853D01*
X164167203Y-110492911D01*
X164167207Y-110492913D01*
X164479549Y-110649777D01*
X164807989Y-110769319D01*
X165148086Y-110849923D01*
X165495241Y-110890500D01*
X165495248Y-110890500D01*
X165844752Y-110890500D01*
X165844759Y-110890500D01*
X166191914Y-110849923D01*
X166532011Y-110769319D01*
X166860451Y-110649777D01*
X167172793Y-110492913D01*
X167464811Y-110300849D01*
X167732558Y-110076183D01*
X167972412Y-109821953D01*
X168181130Y-109541596D01*
X168355889Y-109238904D01*
X168494326Y-108917971D01*
X168594569Y-108583136D01*
X168655262Y-108238927D01*
X168675585Y-107890000D01*
X168655262Y-107541073D01*
X168655260Y-107541061D01*
X168594571Y-107196872D01*
X168594569Y-107196865D01*
X168494325Y-106862027D01*
X168355892Y-106541104D01*
X168355889Y-106541096D01*
X168206119Y-106281686D01*
X168181129Y-106238402D01*
X167972415Y-105958050D01*
X167972410Y-105958044D01*
X167856433Y-105835117D01*
X167732558Y-105703817D01*
X167584488Y-105579572D01*
X167464813Y-105479152D01*
X167464805Y-105479146D01*
X167172796Y-105287088D01*
X166860458Y-105130226D01*
X166860452Y-105130223D01*
X166532012Y-105010681D01*
X166532009Y-105010680D01*
X166191915Y-104930077D01*
X166148519Y-104925004D01*
X165844759Y-104889500D01*
X165495241Y-104889500D01*
X165191480Y-104925004D01*
X165148085Y-104930077D01*
X165148083Y-104930077D01*
X164807990Y-105010680D01*
X164807987Y-105010681D01*
X164479547Y-105130223D01*
X164479541Y-105130226D01*
X164167203Y-105287088D01*
X163875194Y-105479146D01*
X163875186Y-105479152D01*
X163607442Y-105703817D01*
X163607440Y-105703819D01*
X163367589Y-105958044D01*
X163367584Y-105958050D01*
X163158870Y-106238402D01*
X162984113Y-106541091D01*
X162984107Y-106541104D01*
X162845674Y-106862027D01*
X162745430Y-107196865D01*
X162745428Y-107196872D01*
X162684739Y-107541061D01*
X162684738Y-107541072D01*
X162664415Y-107889996D01*
X81215585Y-107889996D01*
X81195262Y-107541073D01*
X81195260Y-107541061D01*
X81134571Y-107196872D01*
X81134569Y-107196865D01*
X81034325Y-106862027D01*
X80895892Y-106541104D01*
X80895889Y-106541096D01*
X80746119Y-106281686D01*
X80721129Y-106238402D01*
X80512415Y-105958050D01*
X80512410Y-105958044D01*
X80396433Y-105835117D01*
X80272558Y-105703817D01*
X80124488Y-105579572D01*
X80004813Y-105479152D01*
X80004805Y-105479146D01*
X79712796Y-105287088D01*
X79400458Y-105130226D01*
X79400452Y-105130223D01*
X79072012Y-105010681D01*
X79072009Y-105010680D01*
X78731915Y-104930077D01*
X78688519Y-104925004D01*
X78384759Y-104889500D01*
X78035241Y-104889500D01*
X77731480Y-104925004D01*
X77688085Y-104930077D01*
X77688083Y-104930077D01*
X77347990Y-105010680D01*
X77347987Y-105010681D01*
X77019547Y-105130223D01*
X77019541Y-105130226D01*
X76707203Y-105287088D01*
X76415194Y-105479146D01*
X76415186Y-105479152D01*
X76147442Y-105703817D01*
X76147440Y-105703819D01*
X75907589Y-105958044D01*
X75907584Y-105958050D01*
X75698870Y-106238402D01*
X75524113Y-106541091D01*
X75524107Y-106541104D01*
X75385674Y-106862027D01*
X75285430Y-107196865D01*
X75285428Y-107196872D01*
X75224739Y-107541061D01*
X75224738Y-107541072D01*
X75204415Y-107889996D01*
X72520500Y-107889996D01*
X72520500Y-77759321D01*
X80124798Y-77759321D01*
X80126205Y-77800215D01*
X80127705Y-77820217D01*
X80132411Y-77860831D01*
X80132411Y-77860833D01*
X80132412Y-77860835D01*
X80174740Y-77998348D01*
X80204589Y-78061521D01*
X80283944Y-78181539D01*
X81744973Y-79824002D01*
X81744982Y-79824011D01*
X81744987Y-79824016D01*
X81795455Y-79873338D01*
X81821765Y-79895682D01*
X81821777Y-79895691D01*
X81821785Y-79895698D01*
X81878640Y-79937517D01*
X82009927Y-79996384D01*
X82077100Y-80015606D01*
X82219653Y-80035100D01*
X104779686Y-79879647D01*
X104846859Y-79898869D01*
X104892977Y-79951357D01*
X104904536Y-80004628D01*
X104904514Y-80007284D01*
X104904508Y-80009137D01*
X104904511Y-80013745D01*
X104978343Y-94306159D01*
X104959005Y-94373300D01*
X104906438Y-94419327D01*
X104854345Y-94430800D01*
X97427500Y-94430800D01*
X97427500Y-95849199D01*
X99610900Y-95849199D01*
X99677939Y-95868884D01*
X99723694Y-95921688D01*
X99734900Y-95973199D01*
X99734900Y-99006801D01*
X99715215Y-99073840D01*
X99662411Y-99119595D01*
X99610900Y-99130801D01*
X97427500Y-99130801D01*
X97427500Y-100549200D01*
X104887232Y-100549200D01*
X104954271Y-100568885D01*
X105000026Y-100621689D01*
X105011230Y-100672559D01*
X105023533Y-103054133D01*
X105023533Y-103054202D01*
X105024130Y-103169852D01*
X105024131Y-103169863D01*
X105039859Y-103292392D01*
X105039859Y-103292395D01*
X105047953Y-103324070D01*
X105054749Y-103350667D01*
X105075082Y-103402679D01*
X105099729Y-103465727D01*
X105185413Y-103581303D01*
X105234591Y-103630941D01*
X105234595Y-103630944D01*
X105349372Y-103717698D01*
X105349372Y-103717699D01*
X106156985Y-104163568D01*
X106217708Y-104197092D01*
X106335871Y-104244060D01*
X106395801Y-104259505D01*
X106521955Y-104275500D01*
X115941322Y-104275500D01*
X115949866Y-104275427D01*
X115949918Y-104275426D01*
X115949930Y-104275426D01*
X115954188Y-104275353D01*
X115962881Y-104275129D01*
X116104510Y-104249774D01*
X116170834Y-104227799D01*
X116299583Y-104163570D01*
X117254143Y-103502720D01*
X117330408Y-103437863D01*
X117364320Y-103402671D01*
X117426299Y-103324070D01*
X117485720Y-103193033D01*
X117504566Y-103128207D01*
X117505080Y-103126560D01*
X117505228Y-103125934D01*
X117525323Y-102983465D01*
X117465829Y-80752315D01*
X117454133Y-80645547D01*
X117442927Y-80594368D01*
X117408944Y-80492496D01*
X117408943Y-80492493D01*
X117331160Y-80371462D01*
X117331151Y-80371451D01*
X117285407Y-80318659D01*
X117285403Y-80318656D01*
X117285401Y-80318653D01*
X117176667Y-80224433D01*
X117176664Y-80224431D01*
X117176662Y-80224430D01*
X117045796Y-80164664D01*
X117045791Y-80164662D01*
X117045790Y-80164662D01*
X116978751Y-80144977D01*
X116978753Y-80144977D01*
X116978748Y-80144976D01*
X116931275Y-80138150D01*
X116836331Y-80124500D01*
X116836329Y-80124500D01*
X110180191Y-80124500D01*
X110113152Y-80104815D01*
X110071825Y-80060773D01*
X109891189Y-79736008D01*
X109891145Y-79735931D01*
X109026588Y-78181536D01*
X107460746Y-75366293D01*
X107445113Y-75306315D01*
X107441651Y-73845266D01*
X107439330Y-72866080D01*
X107452846Y-72809494D01*
X107472546Y-72770832D01*
X107530939Y-72591118D01*
X107547264Y-72488046D01*
X107560499Y-72404486D01*
X107560499Y-71615513D01*
X107530939Y-71428881D01*
X107479301Y-71269957D01*
X107472546Y-71249168D01*
X107472544Y-71249165D01*
X107472544Y-71249163D01*
X107410635Y-71127661D01*
X107386759Y-71080801D01*
X107275689Y-70927927D01*
X107142072Y-70794310D01*
X106989198Y-70683240D01*
X106930002Y-70653078D01*
X106820835Y-70597454D01*
X106641117Y-70539059D01*
X106454485Y-70509500D01*
X106454480Y-70509500D01*
X106265518Y-70509500D01*
X106265513Y-70509500D01*
X106078879Y-70539060D01*
X106078876Y-70539060D01*
X105894868Y-70598849D01*
X105825027Y-70600844D01*
X105765194Y-70564764D01*
X105741119Y-70526213D01*
X105736687Y-70514919D01*
X105736687Y-70514918D01*
X105702168Y-70454171D01*
X105702166Y-70454169D01*
X105702149Y-70454147D01*
X105697987Y-70448685D01*
X105697378Y-70447994D01*
X105614005Y-70340467D01*
X105614003Y-70340464D01*
X103887723Y-68671727D01*
X103887716Y-68671721D01*
X103887710Y-68671715D01*
X103887706Y-68671712D01*
X103848928Y-68637874D01*
X103848918Y-68637865D01*
X103829073Y-68622254D01*
X103829068Y-68622251D01*
X103787037Y-68592527D01*
X103787027Y-68592521D01*
X103655762Y-68533620D01*
X103638817Y-68528766D01*
X103588592Y-68514379D01*
X103588589Y-68514378D01*
X103588587Y-68514378D01*
X103506708Y-68503158D01*
X103446043Y-68494845D01*
X103446041Y-68494845D01*
X103446034Y-68494844D01*
X99915329Y-68518205D01*
X99915311Y-68518205D01*
X99888073Y-68519779D01*
X99863771Y-68521183D01*
X99863762Y-68521184D01*
X99863743Y-68521185D01*
X99838643Y-68523926D01*
X99831437Y-68525087D01*
X99824331Y-68526021D01*
X99778996Y-68530652D01*
X99767207Y-68531857D01*
X99754606Y-68532499D01*
X99245393Y-68532499D01*
X99232793Y-68531857D01*
X99222045Y-68530759D01*
X99182744Y-68526744D01*
X99155419Y-68524699D01*
X99142022Y-68524062D01*
X99118320Y-68523577D01*
X99114667Y-68523503D01*
X99114662Y-68523503D01*
X99114661Y-68523503D01*
X82395806Y-68634118D01*
X82395780Y-68634119D01*
X82315583Y-68641060D01*
X82315572Y-68641062D01*
X82276766Y-68647565D01*
X82276764Y-68647566D01*
X82198699Y-68667144D01*
X82198693Y-68667146D01*
X82070302Y-68732078D01*
X82014253Y-68771338D01*
X82013248Y-68772024D01*
X82013072Y-68772163D01*
X81908178Y-68870638D01*
X81908173Y-68870643D01*
X81908173Y-68870644D01*
X81821253Y-68979424D01*
X80301928Y-70880853D01*
X80287109Y-70900351D01*
X80280057Y-70910113D01*
X80266254Y-70930225D01*
X80266245Y-70930240D01*
X80205688Y-71060731D01*
X80205684Y-71060742D01*
X80185594Y-71127648D01*
X80185588Y-71127673D01*
X80164247Y-71269950D01*
X80164247Y-71269957D01*
X80156842Y-72488046D01*
X80152328Y-73230703D01*
X80149563Y-73685485D01*
X80148504Y-73700916D01*
X80129500Y-73845266D01*
X80129500Y-76574734D01*
X80130779Y-76584451D01*
X80131836Y-76601379D01*
X80124798Y-77759321D01*
X72520500Y-77759321D01*
X72520500Y-57369996D01*
X75204415Y-57369996D01*
X75204415Y-57370003D01*
X75224738Y-57718927D01*
X75224739Y-57718938D01*
X75285428Y-58063127D01*
X75285430Y-58063134D01*
X75385674Y-58397972D01*
X75524107Y-58718895D01*
X75524113Y-58718908D01*
X75698870Y-59021597D01*
X75907584Y-59301949D01*
X75907589Y-59301955D01*
X75952114Y-59349148D01*
X76147442Y-59556183D01*
X76292438Y-59677849D01*
X76415186Y-59780847D01*
X76415194Y-59780853D01*
X76707203Y-59972911D01*
X76707207Y-59972913D01*
X77019549Y-60129777D01*
X77347989Y-60249319D01*
X77688086Y-60329923D01*
X78035241Y-60370500D01*
X78035248Y-60370500D01*
X78384752Y-60370500D01*
X78384759Y-60370500D01*
X78731914Y-60329923D01*
X79072011Y-60249319D01*
X79400451Y-60129777D01*
X79712793Y-59972913D01*
X80004811Y-59780849D01*
X80272558Y-59556183D01*
X80363303Y-59459999D01*
X105735426Y-59459999D01*
X105735426Y-59460000D01*
X105754485Y-59677849D01*
X105754487Y-59677859D01*
X105811083Y-59889082D01*
X105811085Y-59889086D01*
X105811086Y-59889090D01*
X105850173Y-59972913D01*
X105903506Y-60087286D01*
X105903507Y-60087287D01*
X106028941Y-60266425D01*
X106183575Y-60421059D01*
X106362713Y-60546493D01*
X106560910Y-60638914D01*
X106772146Y-60695514D01*
X106772151Y-60695514D01*
X106777474Y-60696453D01*
X106777142Y-60698331D01*
X106834369Y-60720704D01*
X106846193Y-60731113D01*
X107913181Y-61798101D01*
X107946666Y-61859424D01*
X107949500Y-61885782D01*
X107949500Y-67488541D01*
X107949500Y-67488543D01*
X107949499Y-67488543D01*
X107987947Y-67681829D01*
X107987950Y-67681839D01*
X108063364Y-67863907D01*
X108063371Y-67863920D01*
X108172859Y-68027780D01*
X108172860Y-68027781D01*
X108172861Y-68027782D01*
X108312218Y-68167139D01*
X108312219Y-68167139D01*
X108319286Y-68174206D01*
X108319285Y-68174206D01*
X108319289Y-68174209D01*
X109063181Y-68918101D01*
X109096666Y-68979424D01*
X109099500Y-69005782D01*
X109099500Y-70642799D01*
X109079815Y-70709838D01*
X109048387Y-70743116D01*
X108977926Y-70794309D01*
X108844311Y-70927924D01*
X108844311Y-70927925D01*
X108844309Y-70927927D01*
X108796609Y-70993579D01*
X108733239Y-71080800D01*
X108647453Y-71249163D01*
X108589058Y-71428881D01*
X108559499Y-71615513D01*
X108559499Y-72404486D01*
X108589058Y-72591118D01*
X108647453Y-72770836D01*
X108716317Y-72905988D01*
X108733239Y-72939199D01*
X108844309Y-73092073D01*
X108977926Y-73225690D01*
X109130800Y-73336760D01*
X109210346Y-73377290D01*
X109299162Y-73422545D01*
X109299164Y-73422545D01*
X109299167Y-73422547D01*
X109395496Y-73453846D01*
X109478880Y-73480940D01*
X109665513Y-73510500D01*
X109665518Y-73510500D01*
X109854485Y-73510500D01*
X110041117Y-73480940D01*
X110220831Y-73422547D01*
X110389198Y-73336760D01*
X110537115Y-73229291D01*
X110602919Y-73205812D01*
X110670973Y-73221637D01*
X110682873Y-73229284D01*
X110830800Y-73336760D01*
X110910346Y-73377290D01*
X110999162Y-73422545D01*
X110999164Y-73422545D01*
X110999167Y-73422547D01*
X111095496Y-73453846D01*
X111178880Y-73480940D01*
X111365513Y-73510500D01*
X111365518Y-73510500D01*
X111554485Y-73510500D01*
X111741117Y-73480940D01*
X111920831Y-73422547D01*
X112089198Y-73336760D01*
X112242072Y-73225690D01*
X112375689Y-73092073D01*
X112486759Y-72939199D01*
X112572546Y-72770832D01*
X112630939Y-72591118D01*
X112647264Y-72488046D01*
X112660499Y-72404486D01*
X112660499Y-71615513D01*
X112630938Y-71428881D01*
X112630938Y-71428878D01*
X112626569Y-71415430D01*
X112620500Y-71377113D01*
X112620500Y-62404706D01*
X112640185Y-62337667D01*
X112669404Y-62308987D01*
X112667987Y-62307195D01*
X112673654Y-62302713D01*
X112673653Y-62302713D01*
X112673656Y-62302712D01*
X112797712Y-62178656D01*
X112889814Y-62029334D01*
X112944999Y-61862797D01*
X112955500Y-61760009D01*
X112955499Y-60859992D01*
X112944999Y-60757203D01*
X112889814Y-60590666D01*
X112797712Y-60441344D01*
X112673656Y-60317288D01*
X112563460Y-60249319D01*
X112524336Y-60225187D01*
X112524331Y-60225185D01*
X112522862Y-60224698D01*
X112357797Y-60170001D01*
X112357795Y-60170000D01*
X112255010Y-60159500D01*
X110904998Y-60159500D01*
X110904981Y-60159501D01*
X110802203Y-60170000D01*
X110802200Y-60170001D01*
X110635668Y-60225185D01*
X110635663Y-60225187D01*
X110486342Y-60317289D01*
X110362289Y-60441342D01*
X110270187Y-60590663D01*
X110270185Y-60590668D01*
X110242349Y-60674670D01*
X110215001Y-60757203D01*
X110215001Y-60757204D01*
X110215000Y-60757204D01*
X110204500Y-60859983D01*
X110204500Y-61760001D01*
X110204501Y-61760019D01*
X110215000Y-61862796D01*
X110215001Y-61862799D01*
X110222617Y-61885782D01*
X110270186Y-62029334D01*
X110362288Y-62178656D01*
X110486344Y-62302712D01*
X110560596Y-62348510D01*
X110607321Y-62400457D01*
X110619500Y-62454049D01*
X110619500Y-67345217D01*
X110599815Y-67412256D01*
X110547011Y-67458011D01*
X110477853Y-67467955D01*
X110414297Y-67438930D01*
X110407819Y-67432898D01*
X109986819Y-67011898D01*
X109953334Y-66950575D01*
X109950500Y-66924217D01*
X109950500Y-61524675D01*
X109950501Y-61524654D01*
X109950501Y-61321457D01*
X109950500Y-61321455D01*
X109912053Y-61128172D01*
X109912052Y-61128165D01*
X109836632Y-60946086D01*
X109836631Y-60946085D01*
X109836628Y-60946079D01*
X109727140Y-60782219D01*
X109727137Y-60782215D01*
X108261113Y-59316193D01*
X108227628Y-59254870D01*
X108226503Y-59247465D01*
X108226453Y-59247474D01*
X108225513Y-59242143D01*
X108211222Y-59188809D01*
X108168914Y-59030910D01*
X108076493Y-58832713D01*
X107951059Y-58653575D01*
X107796425Y-58498941D01*
X107617287Y-58373507D01*
X107617288Y-58373507D01*
X107617286Y-58373506D01*
X107518188Y-58327296D01*
X107419090Y-58281086D01*
X107419086Y-58281085D01*
X107419082Y-58281083D01*
X107207859Y-58224487D01*
X107207849Y-58224485D01*
X106990001Y-58205426D01*
X106989999Y-58205426D01*
X106772150Y-58224485D01*
X106772140Y-58224487D01*
X106560917Y-58281083D01*
X106560908Y-58281087D01*
X106362713Y-58373506D01*
X106252026Y-58451011D01*
X106183575Y-58498941D01*
X106183573Y-58498942D01*
X106183570Y-58498945D01*
X106028945Y-58653570D01*
X106028942Y-58653573D01*
X106028941Y-58653575D01*
X105987190Y-58713201D01*
X105903506Y-58832713D01*
X105811087Y-59030908D01*
X105811083Y-59030917D01*
X105754487Y-59242140D01*
X105754485Y-59242150D01*
X105735426Y-59459999D01*
X80363303Y-59459999D01*
X80512412Y-59301953D01*
X80721130Y-59021596D01*
X80895889Y-58718904D01*
X81034326Y-58397971D01*
X81134569Y-58063136D01*
X81195262Y-57718927D01*
X81215585Y-57370000D01*
X81195262Y-57021073D01*
X81184493Y-56959999D01*
X100735426Y-56959999D01*
X100735426Y-56960000D01*
X100754485Y-57177849D01*
X100754487Y-57177859D01*
X100811083Y-57389082D01*
X100811085Y-57389086D01*
X100811086Y-57389090D01*
X100857296Y-57488188D01*
X100903506Y-57587286D01*
X100903507Y-57587287D01*
X101028941Y-57766425D01*
X101183575Y-57921059D01*
X101362713Y-58046493D01*
X101560910Y-58138914D01*
X101772146Y-58195514D01*
X101946429Y-58210762D01*
X101989999Y-58214574D01*
X101990000Y-58214574D01*
X101990001Y-58214574D01*
X102026309Y-58211397D01*
X102207854Y-58195514D01*
X102419090Y-58138914D01*
X102617287Y-58046493D01*
X102796425Y-57921059D01*
X102951059Y-57766425D01*
X103076493Y-57587287D01*
X103168914Y-57389090D01*
X103225514Y-57177854D01*
X103225514Y-57177846D01*
X103226453Y-57172526D01*
X103228332Y-57172857D01*
X103250699Y-57115635D01*
X103261105Y-57103813D01*
X104848102Y-55516819D01*
X104909425Y-55483334D01*
X104935783Y-55480500D01*
X119514218Y-55480500D01*
X119581257Y-55500185D01*
X119601899Y-55516819D01*
X134024969Y-69939890D01*
X134058454Y-70001213D01*
X134053470Y-70070905D01*
X134011598Y-70126838D01*
X133991936Y-70138880D01*
X133971682Y-70148823D01*
X133852864Y-70229962D01*
X133852859Y-70229966D01*
X133291565Y-70744484D01*
X133278839Y-70756565D01*
X133272721Y-70762577D01*
X133260431Y-70775081D01*
X131237547Y-72905983D01*
X131206158Y-72942366D01*
X131206155Y-72942370D01*
X131191639Y-72960909D01*
X131163868Y-73000074D01*
X131104351Y-73131068D01*
X131084797Y-73198144D01*
X131064597Y-73340598D01*
X131064597Y-73340601D01*
X131064597Y-73340604D01*
X131064597Y-73340605D01*
X131077318Y-79866332D01*
X131095768Y-89330985D01*
X131124410Y-104024912D01*
X131125724Y-104060355D01*
X131126976Y-104077692D01*
X131126977Y-104077697D01*
X131130771Y-104112946D01*
X131130771Y-104112949D01*
X131130772Y-104112950D01*
X131171234Y-104251019D01*
X131200220Y-104314578D01*
X131200231Y-104314597D01*
X131277945Y-104435662D01*
X131277954Y-104435674D01*
X132820491Y-106217735D01*
X132820496Y-106217741D01*
X132872404Y-106269574D01*
X132872409Y-106269579D01*
X132899574Y-106293026D01*
X132899586Y-106293035D01*
X132899588Y-106293037D01*
X132958462Y-106336817D01*
X133089603Y-106396008D01*
X133156729Y-106415396D01*
X133156731Y-106415396D01*
X133156732Y-106415396D01*
X133156735Y-106415397D01*
X133164964Y-106416561D01*
X133165239Y-106416580D01*
X133299236Y-106435242D01*
X142243416Y-106395666D01*
X142249005Y-106395591D01*
X142252407Y-106395547D01*
X142253819Y-106395515D01*
X142256809Y-106395449D01*
X142265844Y-106395167D01*
X142407325Y-106369003D01*
X142473522Y-106346649D01*
X142601897Y-106281688D01*
X145057267Y-104560996D01*
X145131696Y-104497236D01*
X145164848Y-104462728D01*
X145225567Y-104385816D01*
X145285338Y-104254939D01*
X145305023Y-104187900D01*
X145305024Y-104187896D01*
X145325500Y-104045480D01*
X145325500Y-89649230D01*
X145345185Y-89582191D01*
X145397989Y-89536436D01*
X145449354Y-89525230D01*
X150951705Y-89518780D01*
X153750060Y-89515500D01*
X153752190Y-89515492D01*
X153752568Y-89515489D01*
X153753541Y-89515484D01*
X153753637Y-89515483D01*
X153753669Y-89515483D01*
X153754162Y-89515478D01*
X153756045Y-89515463D01*
X155401095Y-89497678D01*
X155544155Y-89496132D01*
X155593774Y-89491271D01*
X155631397Y-89487587D01*
X155673515Y-89479729D01*
X155757962Y-89456244D01*
X155884169Y-89387155D01*
X155940058Y-89345224D01*
X155940062Y-89345221D01*
X156041691Y-89243373D01*
X157190428Y-87705396D01*
X157200516Y-87691398D01*
X157205350Y-87684443D01*
X157214968Y-87670087D01*
X157275000Y-87539329D01*
X157294819Y-87472329D01*
X157315581Y-87329957D01*
X157345404Y-72488042D01*
X157343987Y-72449189D01*
X157342561Y-72430191D01*
X157338168Y-72391599D01*
X157296394Y-72253916D01*
X157266800Y-72190624D01*
X157266799Y-72190623D01*
X157266798Y-72190622D01*
X157266718Y-72190450D01*
X157265742Y-72189011D01*
X157187928Y-72070286D01*
X156138414Y-70880837D01*
X155606059Y-70277501D01*
X155556335Y-70228445D01*
X155556321Y-70228431D01*
X155530380Y-70206158D01*
X155474386Y-70164438D01*
X155474384Y-70164436D01*
X155474379Y-70164433D01*
X155440199Y-70148823D01*
X155343505Y-70104663D01*
X155276460Y-70084976D01*
X155219057Y-70076723D01*
X155134043Y-70064500D01*
X155134041Y-70064500D01*
X137030783Y-70064500D01*
X136963744Y-70044815D01*
X136943102Y-70028181D01*
X124284916Y-57369996D01*
X162664415Y-57369996D01*
X162664415Y-57370003D01*
X162684738Y-57718927D01*
X162684739Y-57718938D01*
X162745428Y-58063127D01*
X162745430Y-58063134D01*
X162845674Y-58397972D01*
X162984107Y-58718895D01*
X162984113Y-58718908D01*
X163158870Y-59021597D01*
X163367584Y-59301949D01*
X163367589Y-59301955D01*
X163412114Y-59349148D01*
X163607442Y-59556183D01*
X163752438Y-59677849D01*
X163875186Y-59780847D01*
X163875194Y-59780853D01*
X164167203Y-59972911D01*
X164167207Y-59972913D01*
X164479549Y-60129777D01*
X164807989Y-60249319D01*
X165148086Y-60329923D01*
X165495241Y-60370500D01*
X165495248Y-60370500D01*
X165844752Y-60370500D01*
X165844759Y-60370500D01*
X166191914Y-60329923D01*
X166532011Y-60249319D01*
X166860451Y-60129777D01*
X167172793Y-59972913D01*
X167464811Y-59780849D01*
X167732558Y-59556183D01*
X167972412Y-59301953D01*
X168181130Y-59021596D01*
X168355889Y-58718904D01*
X168494326Y-58397971D01*
X168594569Y-58063136D01*
X168655262Y-57718927D01*
X168675585Y-57370000D01*
X168655262Y-57021073D01*
X168644493Y-56959999D01*
X168594571Y-56676872D01*
X168594569Y-56676865D01*
X168550873Y-56530910D01*
X168494326Y-56342029D01*
X168355889Y-56021096D01*
X168217320Y-55781087D01*
X168181129Y-55718402D01*
X167972415Y-55438050D01*
X167972410Y-55438044D01*
X167856433Y-55315117D01*
X167732558Y-55183817D01*
X167584488Y-55059572D01*
X167464813Y-54959152D01*
X167464805Y-54959146D01*
X167172796Y-54767088D01*
X166860458Y-54610226D01*
X166860452Y-54610223D01*
X166532012Y-54490681D01*
X166532009Y-54490680D01*
X166191915Y-54410077D01*
X166148519Y-54405004D01*
X165844759Y-54369500D01*
X165495241Y-54369500D01*
X165191480Y-54405004D01*
X165148085Y-54410077D01*
X165148083Y-54410077D01*
X164807990Y-54490680D01*
X164807987Y-54490681D01*
X164479547Y-54610223D01*
X164479541Y-54610226D01*
X164167203Y-54767088D01*
X163875194Y-54959146D01*
X163875186Y-54959152D01*
X163607442Y-55183817D01*
X163607440Y-55183819D01*
X163367589Y-55438044D01*
X163367584Y-55438050D01*
X163158870Y-55718402D01*
X162984113Y-56021091D01*
X162984107Y-56021104D01*
X162845674Y-56342027D01*
X162745430Y-56676865D01*
X162745428Y-56676872D01*
X162684739Y-57021061D01*
X162684738Y-57021072D01*
X162664415Y-57369996D01*
X124284916Y-57369996D01*
X120764209Y-53849289D01*
X120764206Y-53849285D01*
X120764206Y-53849286D01*
X120757139Y-53842219D01*
X120757139Y-53842218D01*
X120617782Y-53702861D01*
X120617781Y-53702860D01*
X120617780Y-53702859D01*
X120453920Y-53593371D01*
X120453911Y-53593366D01*
X120381315Y-53563296D01*
X120325165Y-53540038D01*
X120271836Y-53517949D01*
X120271832Y-53517948D01*
X120271828Y-53517946D01*
X120175188Y-53498724D01*
X120078544Y-53479500D01*
X120078541Y-53479500D01*
X104371459Y-53479500D01*
X104371454Y-53479500D01*
X104339391Y-53485876D01*
X104339392Y-53485877D01*
X104178170Y-53517946D01*
X104178164Y-53517948D01*
X103996088Y-53593366D01*
X103996079Y-53593371D01*
X103832219Y-53702859D01*
X103832215Y-53702862D01*
X101846192Y-55688886D01*
X101784869Y-55722371D01*
X101777467Y-55723495D01*
X101777476Y-55723546D01*
X101772148Y-55724485D01*
X101560917Y-55781083D01*
X101560908Y-55781087D01*
X101362713Y-55873506D01*
X101243201Y-55957190D01*
X101183575Y-55998941D01*
X101183573Y-55998942D01*
X101183570Y-55998945D01*
X101028945Y-56153570D01*
X100903506Y-56332713D01*
X100811087Y-56530908D01*
X100811083Y-56530917D01*
X100754487Y-56742140D01*
X100754485Y-56742150D01*
X100735426Y-56959999D01*
X81184493Y-56959999D01*
X81134571Y-56676872D01*
X81134569Y-56676865D01*
X81090873Y-56530910D01*
X81034326Y-56342029D01*
X80895889Y-56021096D01*
X80757320Y-55781087D01*
X80721129Y-55718402D01*
X80512415Y-55438050D01*
X80512410Y-55438044D01*
X80396433Y-55315117D01*
X80272558Y-55183817D01*
X80124488Y-55059572D01*
X80004813Y-54959152D01*
X80004805Y-54959146D01*
X79712796Y-54767088D01*
X79400458Y-54610226D01*
X79400452Y-54610223D01*
X79072012Y-54490681D01*
X79072009Y-54490680D01*
X78731915Y-54410077D01*
X78688519Y-54405004D01*
X78384759Y-54369500D01*
X78035241Y-54369500D01*
X77731480Y-54405004D01*
X77688085Y-54410077D01*
X77688083Y-54410077D01*
X77347990Y-54490680D01*
X77347987Y-54490681D01*
X77019547Y-54610223D01*
X77019541Y-54610226D01*
X76707203Y-54767088D01*
X76415194Y-54959146D01*
X76415186Y-54959152D01*
X76147442Y-55183817D01*
X76147440Y-55183819D01*
X75907589Y-55438044D01*
X75907584Y-55438050D01*
X75698870Y-55718402D01*
X75524113Y-56021091D01*
X75524107Y-56021104D01*
X75385674Y-56342027D01*
X75285430Y-56676865D01*
X75285428Y-56676872D01*
X75224739Y-57021061D01*
X75224738Y-57021072D01*
X75204415Y-57369996D01*
X72520500Y-57369996D01*
X72520500Y-52336961D01*
X72521280Y-52323077D01*
X72521280Y-52323076D01*
X72531459Y-52232731D01*
X72537635Y-52205670D01*
X72565353Y-52126456D01*
X72577396Y-52101450D01*
X72622046Y-52030389D01*
X72639351Y-52008690D01*
X72698690Y-51949351D01*
X72720389Y-51932046D01*
X72791450Y-51887396D01*
X72816456Y-51875353D01*
X72895670Y-51847635D01*
X72922733Y-51841459D01*
X72985419Y-51834396D01*
X73013079Y-51831280D01*
X73026962Y-51830500D01*
X73085892Y-51830500D01*
X170394108Y-51830500D01*
X170453038Y-51830500D01*
X170466922Y-51831280D01*
G37*
%TD.AperFunction*%
%TD*%
%TA.AperFunction,Conductor*%
%TO.N,Net-(D1-K)*%
G36*
X106695652Y-71189487D02*
G01*
X106723847Y-71193776D01*
X106820279Y-71220076D01*
X106879777Y-71256707D01*
X106910026Y-71319689D01*
X106905584Y-71378023D01*
X106889059Y-71428882D01*
X106859500Y-71615513D01*
X106859500Y-72404486D01*
X106868175Y-72459255D01*
X106889060Y-72591118D01*
X106927479Y-72709358D01*
X106933548Y-72747382D01*
X106940000Y-75470000D01*
X109465791Y-80011145D01*
X109810000Y-80630000D01*
X116836331Y-80630000D01*
X116903370Y-80649685D01*
X116949125Y-80702489D01*
X116960331Y-80753668D01*
X117019825Y-102984818D01*
X117000319Y-103051910D01*
X116966407Y-103087102D01*
X116011847Y-103747952D01*
X115945523Y-103769927D01*
X115941265Y-103770000D01*
X114340000Y-103770000D01*
X106521955Y-103770000D01*
X106462025Y-103754555D01*
X105593690Y-103275162D01*
X105544515Y-103225528D01*
X105529624Y-103167248D01*
X105529028Y-103051910D01*
X105410005Y-80011040D01*
X105410012Y-80009013D01*
X105492445Y-73579286D01*
X105512987Y-73512509D01*
X105566373Y-73467435D01*
X105573074Y-73464708D01*
X105602330Y-73453797D01*
X105717545Y-73367547D01*
X105803795Y-73252332D01*
X105854090Y-73117484D01*
X105860499Y-73057874D01*
X105860498Y-71340400D01*
X105880183Y-71273362D01*
X105929915Y-71229060D01*
X106000709Y-71194358D01*
X106062564Y-71181915D01*
X106200000Y-71190000D01*
X106425101Y-71180212D01*
X106434900Y-71180175D01*
X106695652Y-71189487D01*
G37*
%TD.AperFunction*%
%TD*%
%TA.AperFunction,Conductor*%
%TO.N,Net-(J2-Pin_1)*%
G36*
X155201082Y-70589685D02*
G01*
X155227021Y-70611957D01*
X156808885Y-72404736D01*
X156838479Y-72468028D01*
X156839905Y-72487026D01*
X156810082Y-87328941D01*
X156790263Y-87395941D01*
X156785429Y-87402896D01*
X155636692Y-88940873D01*
X155580803Y-88982804D01*
X155538685Y-88990662D01*
X153750580Y-89009993D01*
X153749385Y-89010000D01*
X145220000Y-89019999D01*
X144820000Y-89330000D01*
X144820000Y-104045480D01*
X144800315Y-104112519D01*
X144767163Y-104147027D01*
X142311793Y-105867719D01*
X142245596Y-105890073D01*
X142241179Y-105890171D01*
X133296999Y-105929747D01*
X133229873Y-105910359D01*
X133202695Y-105886902D01*
X131660155Y-104104837D01*
X131631163Y-104041266D01*
X131629910Y-104023925D01*
X131601267Y-89330000D01*
X131570096Y-73339620D01*
X131589650Y-73272545D01*
X131604157Y-73254018D01*
X133627053Y-71123104D01*
X133633151Y-71117111D01*
X134194444Y-70602593D01*
X134257164Y-70571803D01*
X134278234Y-70570000D01*
X155134043Y-70570000D01*
X155201082Y-70589685D01*
G37*
%TD.AperFunction*%
%TD*%
M02*
