M48
; DRILL file {KiCad 8.0.7-8.0.7-0~ubuntu20.04.1} date 2025-01-31T01:03:07+0530
; FORMAT={-:-/ absolute / inch / decimal}
; #@! TF.CreationDate,2025-01-31T01:03:07+05:30
; #@! TF.GenerationSoftware,Kicad,Pcbnew,8.0.7-8.0.7-0~ubuntu20.04.1
; #@! TF.FileFunction,Plated,1,2,PTH
FMAT,2
INCH
; #@! TA.AperFunction,Plated,PTH,ViaDrill
T1C0.0118
; #@! TA.AperFunction,Plated,PTH,ComponentDrill
T2C0.0390
; #@! TA.AperFunction,Plated,PTH,ComponentDrill
T3C0.0394
; #@! TA.AperFunction,Plated,PTH,ComponentDrill
T4C0.0433
%
G90
G05
T1
X3.3295Y-3.3575
X3.3307Y-3.4094
X3.3307Y-3.4701
X3.3307Y-3.5307
X3.3307Y-3.5913
X3.3307Y-3.6445
X3.3307Y-3.7051
X3.3307Y-3.7657
X3.3307Y-3.8264
X3.3307Y-3.8744
X3.3307Y-3.935
X3.3307Y-3.9957
X3.3307Y-4.0563
X3.3902Y-3.3575
X3.3913Y-3.4094
X3.3913Y-3.4701
X3.3913Y-3.5307
X3.3913Y-3.5913
X3.3913Y-3.6445
X3.3913Y-3.7051
X3.3913Y-3.7657
X3.3913Y-3.8264
X3.3913Y-3.8744
X3.3913Y-3.935
X3.3913Y-3.9957
X3.3913Y-4.0563
X3.4508Y-3.3575
X3.452Y-3.4094
X3.452Y-3.4701
X3.452Y-3.5307
X3.452Y-3.5913
X3.452Y-3.6445
X3.452Y-3.7051
X3.452Y-3.7657
X3.452Y-3.8264
X3.452Y-3.8744
X3.452Y-3.935
X3.452Y-3.9957
X3.452Y-4.0563
X3.4921Y-2.2161
X3.4921Y-2.2768
X3.4921Y-2.3374
X3.4921Y-2.398
X3.4921Y-2.4587
X3.5114Y-3.3575
X3.5126Y-3.4094
X3.5126Y-3.4701
X3.5126Y-3.5307
X3.5126Y-3.5913
X3.5126Y-3.6445
X3.5126Y-3.7051
X3.5126Y-3.7657
X3.5126Y-3.8264
X3.5126Y-3.8744
X3.5126Y-3.935
X3.5126Y-3.9957
X3.5126Y-4.0563
X3.5528Y-2.2161
X3.5528Y-2.2768
X3.5528Y-2.3374
X3.5528Y-2.398
X3.5528Y-2.4587
X3.572Y-3.3575
X3.5732Y-3.4094
X3.5732Y-3.4701
X3.5732Y-3.5307
X3.5732Y-3.5913
X3.5732Y-3.6445
X3.5732Y-3.7051
X3.5732Y-3.7657
X3.5732Y-3.8264
X3.5732Y-3.8744
X3.5732Y-3.935
X3.5732Y-3.9957
X3.5732Y-4.0563
X3.6134Y-2.2161
X3.6134Y-2.2768
X3.6134Y-2.3374
X3.6134Y-2.398
X3.6134Y-2.4587
X3.674Y-2.2161
X3.674Y-2.2768
X3.674Y-2.3374
X3.674Y-2.398
X3.674Y-2.4587
X3.726Y-2.215
X3.726Y-2.2756
X3.726Y-2.3362
X3.726Y-2.3969
X3.726Y-2.4575
X3.7866Y-2.215
X3.7866Y-2.2756
X3.7866Y-2.3362
X3.7866Y-2.3969
X3.7866Y-2.4575
X4.5697Y-2.7244
X4.5697Y-2.785
X4.5697Y-2.8457
X4.5697Y-2.9063
X4.5697Y-2.9669
X4.5701Y-2.4173
X4.5701Y-2.478
X4.5701Y-2.5386
X4.5701Y-2.5992
X4.5701Y-2.6598
X4.6303Y-2.7244
X4.6303Y-2.785
X4.6303Y-2.8457
X4.6303Y-2.9063
X4.6303Y-2.9669
X4.6307Y-2.4173
X4.6307Y-2.478
X4.6307Y-2.5386
X4.6307Y-2.5992
X4.6307Y-2.6598
X4.6909Y-2.7244
X4.6909Y-2.785
X4.6909Y-2.8457
X4.6909Y-2.9063
X4.6909Y-2.9669
X4.6913Y-2.4173
X4.6913Y-2.478
X4.6913Y-2.5386
X4.6913Y-2.5992
X4.6913Y-2.6598
X4.7398Y-3.9634
X4.7398Y-4.024
X4.7398Y-4.0846
X4.7398Y-4.1453
X4.7402Y-3.2441
X4.7402Y-3.3047
X4.7402Y-3.3654
X4.7402Y-3.426
X4.7402Y-3.4843
X4.7402Y-3.5449
X4.7402Y-3.6055
X4.7402Y-3.6661
X4.7402Y-3.7213
X4.7402Y-3.7819
X4.7402Y-3.8425
X4.7402Y-3.9031
X4.7413Y-3.0087
X4.7413Y-3.0693
X4.7413Y-3.1299
X4.7413Y-3.1906
X4.7516Y-2.7244
X4.7516Y-2.785
X4.7516Y-2.8457
X4.7516Y-2.9063
X4.7516Y-2.9669
X4.752Y-2.4173
X4.752Y-2.478
X4.752Y-2.5386
X4.752Y-2.5992
X4.752Y-2.6598
X4.8004Y-3.9634
X4.8004Y-4.024
X4.8004Y-4.0846
X4.8004Y-4.1453
X4.8008Y-3.2441
X4.8008Y-3.3047
X4.8008Y-3.3654
X4.8008Y-3.426
X4.8008Y-3.4843
X4.8008Y-3.5449
X4.8008Y-3.6055
X4.8008Y-3.6661
X4.8008Y-3.7213
X4.8008Y-3.7819
X4.8008Y-3.8425
X4.8008Y-3.9031
X4.802Y-3.0087
X4.802Y-3.0693
X4.802Y-3.1299
X4.802Y-3.1906
X4.8035Y-2.7232
X4.8035Y-2.7839
X4.8035Y-2.8445
X4.8035Y-2.9051
X4.8035Y-2.9657
X4.861Y-3.9634
X4.861Y-4.024
X4.861Y-4.0846
X4.861Y-4.1453
X4.8614Y-3.2441
X4.8614Y-3.3047
X4.8614Y-3.3654
X4.8614Y-3.426
X4.8614Y-3.4843
X4.8614Y-3.5449
X4.8614Y-3.6055
X4.8614Y-3.6661
X4.8614Y-3.7213
X4.8614Y-3.7819
X4.8614Y-3.8425
X4.8614Y-3.9031
X4.8626Y-3.0087
X4.8626Y-3.0693
X4.8626Y-3.1299
X4.8626Y-3.1906
X4.8642Y-2.7232
X4.8642Y-2.7839
X4.8642Y-2.8445
X4.8642Y-2.9051
X4.8642Y-2.9657
X4.9217Y-3.9634
X4.9217Y-4.024
X4.9217Y-4.0846
X4.9217Y-4.1453
X4.922Y-3.2441
X4.922Y-3.3047
X4.922Y-3.3654
X4.922Y-3.426
X4.922Y-3.4843
X4.922Y-3.5449
X4.922Y-3.6055
X4.922Y-3.6661
X4.922Y-3.7213
X4.922Y-3.7819
X4.922Y-3.8425
X4.922Y-3.9031
X4.9232Y-3.0087
X4.9232Y-3.0693
X4.9232Y-3.1299
X4.9232Y-3.1906
X4.9248Y-2.7232
X4.9248Y-2.7839
X4.9248Y-2.8445
X4.9248Y-2.9051
X4.9248Y-2.9657
X4.9823Y-3.9634
X4.9823Y-4.024
X4.9823Y-4.0846
X4.9823Y-4.1453
X4.9827Y-3.2441
X4.9827Y-3.3047
X4.9827Y-3.3654
X4.9827Y-3.426
X4.9827Y-3.4843
X4.9827Y-3.5449
X4.9827Y-3.6055
X4.9827Y-3.6661
X4.9827Y-3.7213
X4.9827Y-3.7819
X4.9827Y-3.8425
X4.9827Y-3.9031
X4.9839Y-3.0087
X4.9839Y-3.0693
X4.9839Y-3.1299
X4.9839Y-3.1906
X4.9854Y-2.7232
X4.9854Y-2.7839
X4.9854Y-2.8445
X4.9854Y-2.9051
X4.9854Y-2.9657
X5.2094Y-2.1087
X5.2094Y-2.1693
X5.2094Y-2.2299
X5.2701Y-2.1087
X5.2701Y-2.1693
X5.2701Y-2.2299
X5.3307Y-2.1087
X5.3307Y-2.1693
X5.3307Y-2.2299
X5.3913Y-2.1087
X5.3913Y-2.1693
X5.3913Y-2.2299
X5.4433Y-2.1075
X5.4433Y-2.1681
X5.4433Y-2.2287
X5.5039Y-2.1075
X5.5039Y-2.1681
X5.5039Y-2.2287
X5.5646Y-2.1075
X5.5646Y-2.1681
X5.5646Y-2.2287
X5.6252Y-2.1075
X5.6252Y-2.1681
X5.6252Y-2.2287
X5.837Y-2.1165
X5.837Y-2.1772
X5.837Y-2.2378
X5.837Y-2.2984
X5.8382Y-2.3626
X5.8382Y-2.4232
X5.8382Y-2.4839
X5.8382Y-2.5445
X5.8382Y-2.6051
X5.8976Y-2.1165
X5.8976Y-2.1772
X5.8976Y-2.2378
X5.8976Y-2.2984
X5.8988Y-2.3626
X5.8988Y-2.4232
X5.8988Y-2.4839
X5.8988Y-2.5445
X5.8988Y-2.6051
X5.9193Y-3.7299
X5.9193Y-3.7764
X5.9193Y-3.837
X5.9193Y-3.8976
X5.9193Y-3.9583
X5.9193Y-4.0051
X5.9193Y-4.0657
X5.9583Y-2.1165
X5.9583Y-2.1772
X5.9583Y-2.2378
X5.9583Y-2.2984
X5.9594Y-2.3626
X5.9594Y-2.4232
X5.9594Y-2.4839
X5.9594Y-2.5445
X5.9594Y-2.6051
X5.9799Y-3.7299
X5.9799Y-3.7764
X5.9799Y-3.837
X5.9799Y-3.8976
X5.9799Y-3.9583
X5.9799Y-4.0051
X5.9799Y-4.0657
X6.0189Y-2.1165
X6.0189Y-2.1772
X6.0189Y-2.2378
X6.0189Y-2.2984
X6.0201Y-2.3626
X6.0201Y-2.4232
X6.0201Y-2.4839
X6.0201Y-2.5445
X6.0201Y-2.6051
X6.0406Y-3.7299
X6.0406Y-3.7764
X6.0406Y-3.837
X6.0406Y-3.8976
X6.0406Y-3.9583
X6.0406Y-4.0051
X6.0406Y-4.0657
X6.072Y-2.3614
X6.072Y-2.422
X6.072Y-2.4827
X6.072Y-2.5433
X6.072Y-2.6039
X6.0795Y-2.1165
X6.0795Y-2.1772
X6.0795Y-2.2378
X6.0795Y-2.2984
X6.1012Y-3.7299
X6.1012Y-3.7764
X6.1012Y-3.837
X6.1012Y-3.8976
X6.1012Y-3.9583
X6.1012Y-4.0051
X6.1012Y-4.0657
X6.1618Y-3.7299
X6.1618Y-3.7764
X6.1618Y-3.837
X6.1618Y-3.8976
X6.1618Y-3.9583
X6.1618Y-4.0051
X6.1618Y-4.0657
T2
X4.0154Y-2.2425
X4.0154Y-2.4394
X4.2122Y-2.3409
T3
X6.0244Y-2.9343
X6.0244Y-3.0343
X6.0244Y-3.1343
X6.0244Y-3.2343
X6.0244Y-3.3343
X6.3343Y-2.9343
X6.3343Y-3.0343
X6.3343Y-3.1343
X6.3343Y-3.2343
X6.3343Y-3.3343
T4
X4.1205Y-2.835
X4.1874Y-2.835
X4.2543Y-2.835
X4.3213Y-2.835
X4.3882Y-2.835
T3
G00X2.9874Y-3.0004
M15
G01X2.9874Y-2.9217
M16
G05
G00X3.1449Y-3.1461
M15
G01X3.0661Y-3.1461
M16
G05
G00X3.2236Y-3.0102
M15
G01X3.2236Y-2.9118
M16
G05
M30
