%TF.GenerationSoftware,KiCad,Pcbnew,8.0.7-8.0.7-0~ubuntu20.04.1*%
%TF.CreationDate,2025-01-29T23:58:39+05:30*%
%TF.ProjectId,Buck_Converter_12V_3V3,4275636b-5f43-46f6-9e76-65727465725f,rev?*%
%TF.SameCoordinates,Original*%
%TF.FileFunction,Soldermask,Top*%
%TF.FilePolarity,Negative*%
%FSLAX46Y46*%
G04 Gerber Fmt 4.6, Leading zero omitted, Abs format (unit mm)*
G04 Created by KiCad (PCBNEW 8.0.7-8.0.7-0~ubuntu20.04.1) date 2025-01-29 23:58:39*
%MOMM*%
%LPD*%
G01*
G04 APERTURE LIST*
G04 Aperture macros list*
%AMRoundRect*
0 Rectangle with rounded corners*
0 $1 Rounding radius*
0 $2 $3 $4 $5 $6 $7 $8 $9 X,Y pos of 4 corners*
0 Add a 4 corners polygon primitive as box body*
4,1,4,$2,$3,$4,$5,$6,$7,$8,$9,$2,$3,0*
0 Add four circle primitives for the rounded corners*
1,1,$1+$1,$2,$3*
1,1,$1+$1,$4,$5*
1,1,$1+$1,$6,$7*
1,1,$1+$1,$8,$9*
0 Add four rect primitives between the rounded corners*
20,1,$1+$1,$2,$3,$4,$5,0*
20,1,$1+$1,$4,$5,$6,$7,0*
20,1,$1+$1,$6,$7,$8,$9,0*
20,1,$1+$1,$8,$9,$2,$3,0*%
G04 Aperture macros list end*
%ADD10R,1.800000X1.800000*%
%ADD11C,1.800000*%
%ADD12R,1.400000X2.000001*%
%ADD13O,1.400000X2.000001*%
%ADD14RoundRect,0.250000X-0.400000X-0.625000X0.400000X-0.625000X0.400000X0.625000X-0.400000X0.625000X0*%
%ADD15RoundRect,0.250000X0.625000X-0.400000X0.625000X0.400000X-0.625000X0.400000X-0.625000X-0.400000X0*%
%ADD16RoundRect,0.250000X-0.625000X0.400000X-0.625000X-0.400000X0.625000X-0.400000X0.625000X0.400000X0*%
%ADD17R,5.100000X17.800000*%
%ADD18R,1.700000X1.700000*%
%ADD19O,1.700000X1.700000*%
%ADD20O,2.704000X5.204000*%
%ADD21O,2.454000X4.704000*%
%ADD22O,4.704000X2.454000*%
%ADD23R,2.561399X3.180001*%
%ADD24RoundRect,0.250000X0.650000X-0.412500X0.650000X0.412500X-0.650000X0.412500X-0.650000X-0.412500X0*%
%ADD25RoundRect,0.237500X-0.237500X0.250000X-0.237500X-0.250000X0.237500X-0.250000X0.237500X0.250000X0*%
%ADD26RoundRect,0.102000X1.250000X-3.250000X1.250000X3.250000X-1.250000X3.250000X-1.250000X-3.250000X0*%
%ADD27RoundRect,0.250000X-0.412500X-0.650000X0.412500X-0.650000X0.412500X0.650000X-0.412500X0.650000X0*%
%ADD28RoundRect,0.237500X0.237500X-0.300000X0.237500X0.300000X-0.237500X0.300000X-0.237500X-0.300000X0*%
%ADD29RoundRect,0.102000X-1.250000X3.250000X-1.250000X-3.250000X1.250000X-3.250000X1.250000X3.250000X0*%
G04 APERTURE END LIST*
D10*
%TO.C,D2*%
X156060000Y-92430000D03*
D11*
X156060000Y-94970000D03*
%TD*%
D12*
%TO.C,U1*%
X104659999Y-72010000D03*
D13*
X106359999Y-72010000D03*
X108060000Y-72010000D03*
X109759999Y-72010000D03*
X111459999Y-72010000D03*
%TD*%
D14*
%TO.C,R4*%
X157050000Y-98870000D03*
X160150000Y-98870000D03*
%TD*%
D15*
%TO.C,R3*%
X108950000Y-61320000D03*
X108950000Y-58220000D03*
%TD*%
D16*
%TO.C,R2*%
X106170000Y-61320000D03*
X106170000Y-58220000D03*
%TD*%
D15*
%TO.C,R1*%
X111580000Y-58210000D03*
X111580000Y-61310000D03*
%TD*%
D17*
%TO.C,L1*%
X114050000Y-91850000D03*
X142050000Y-91850000D03*
%TD*%
D18*
%TO.C,J3*%
X160890000Y-74530000D03*
D19*
X160890000Y-77070000D03*
X160890000Y-79610000D03*
X160890000Y-82150000D03*
X160890000Y-84690000D03*
%TD*%
D18*
%TO.C,J2*%
X153020000Y-74530000D03*
D19*
X153020000Y-77070000D03*
X153020000Y-79610000D03*
X153020000Y-82150000D03*
X153020000Y-84690000D03*
%TD*%
D20*
%TO.C,J1*%
X81880000Y-75210000D03*
D21*
X75880000Y-75210000D03*
D22*
X78880000Y-79910000D03*
%TD*%
D23*
%TO.C,D1*%
X104480000Y-97490000D03*
X98403400Y-97490000D03*
%TD*%
D24*
%TO.C,C7*%
X148480000Y-71945000D03*
X148480000Y-68820000D03*
%TD*%
D25*
%TO.C,C6*%
X148640000Y-88255000D03*
X148640000Y-90080000D03*
%TD*%
D26*
%TO.C,C5*%
X137120000Y-73970000D03*
X137120000Y-61470000D03*
%TD*%
D27*
%TO.C,C4*%
X143275000Y-103070000D03*
X146400000Y-103070000D03*
%TD*%
D24*
%TO.C,C3*%
X94660000Y-70110000D03*
X94660000Y-66985000D03*
%TD*%
D28*
%TO.C,C2*%
X99500000Y-69725000D03*
X99500000Y-68000000D03*
%TD*%
D29*
%TO.C,C1*%
X95950000Y-75520000D03*
X95950000Y-88020000D03*
%TD*%
M02*
