%TF.GenerationSoftware,KiCad,Pcbnew,8.0.7-8.0.7-0~ubuntu20.04.1*%
%TF.CreationDate,2025-01-31T01:02:46+05:30*%
%TF.ProjectId,Buck_Converter_12V_3V3,4275636b-5f43-46f6-9e76-65727465725f,rev?*%
%TF.SameCoordinates,Original*%
%TF.FileFunction,Legend,Top*%
%TF.FilePolarity,Positive*%
%FSLAX46Y46*%
G04 Gerber Fmt 4.6, Leading zero omitted, Abs format (unit mm)*
G04 Created by KiCad (PCBNEW 8.0.7-8.0.7-0~ubuntu20.04.1) date 2025-01-31 01:02:46*
%MOMM*%
%LPD*%
G01*
G04 APERTURE LIST*
%ADD10C,0.250000*%
%ADD11C,0.100000*%
%ADD12C,0.500000*%
%ADD13C,1.000000*%
%ADD14C,0.150000*%
%ADD15C,0.254000*%
%ADD16C,0.152400*%
%ADD17C,0.127000*%
%ADD18C,0.400000*%
%ADD19C,0.120000*%
%ADD20C,0.200000*%
%ADD21C,0.000000*%
G04 APERTURE END LIST*
D10*
X143652568Y-109024619D02*
X143652568Y-108024619D01*
X143652568Y-108024619D02*
X143985901Y-108738904D01*
X143985901Y-108738904D02*
X144319234Y-108024619D01*
X144319234Y-108024619D02*
X144319234Y-109024619D01*
X145223996Y-109024619D02*
X145223996Y-108500809D01*
X145223996Y-108500809D02*
X145176377Y-108405571D01*
X145176377Y-108405571D02*
X145081139Y-108357952D01*
X145081139Y-108357952D02*
X144890663Y-108357952D01*
X144890663Y-108357952D02*
X144795425Y-108405571D01*
X145223996Y-108977000D02*
X145128758Y-109024619D01*
X145128758Y-109024619D02*
X144890663Y-109024619D01*
X144890663Y-109024619D02*
X144795425Y-108977000D01*
X144795425Y-108977000D02*
X144747806Y-108881761D01*
X144747806Y-108881761D02*
X144747806Y-108786523D01*
X144747806Y-108786523D02*
X144795425Y-108691285D01*
X144795425Y-108691285D02*
X144890663Y-108643666D01*
X144890663Y-108643666D02*
X145128758Y-108643666D01*
X145128758Y-108643666D02*
X145223996Y-108596047D01*
X146128758Y-108357952D02*
X146128758Y-109167476D01*
X146128758Y-109167476D02*
X146081139Y-109262714D01*
X146081139Y-109262714D02*
X146033520Y-109310333D01*
X146033520Y-109310333D02*
X145938282Y-109357952D01*
X145938282Y-109357952D02*
X145795425Y-109357952D01*
X145795425Y-109357952D02*
X145700187Y-109310333D01*
X146128758Y-108977000D02*
X146033520Y-109024619D01*
X146033520Y-109024619D02*
X145843044Y-109024619D01*
X145843044Y-109024619D02*
X145747806Y-108977000D01*
X145747806Y-108977000D02*
X145700187Y-108929380D01*
X145700187Y-108929380D02*
X145652568Y-108834142D01*
X145652568Y-108834142D02*
X145652568Y-108548428D01*
X145652568Y-108548428D02*
X145700187Y-108453190D01*
X145700187Y-108453190D02*
X145747806Y-108405571D01*
X145747806Y-108405571D02*
X145843044Y-108357952D01*
X145843044Y-108357952D02*
X146033520Y-108357952D01*
X146033520Y-108357952D02*
X146128758Y-108405571D01*
X146604949Y-109024619D02*
X146604949Y-108357952D01*
X146604949Y-108024619D02*
X146557330Y-108072238D01*
X146557330Y-108072238D02*
X146604949Y-108119857D01*
X146604949Y-108119857D02*
X146652568Y-108072238D01*
X146652568Y-108072238D02*
X146604949Y-108024619D01*
X146604949Y-108024619D02*
X146604949Y-108119857D01*
X147509710Y-108977000D02*
X147414472Y-109024619D01*
X147414472Y-109024619D02*
X147223996Y-109024619D01*
X147223996Y-109024619D02*
X147128758Y-108977000D01*
X147128758Y-108977000D02*
X147081139Y-108929380D01*
X147081139Y-108929380D02*
X147033520Y-108834142D01*
X147033520Y-108834142D02*
X147033520Y-108548428D01*
X147033520Y-108548428D02*
X147081139Y-108453190D01*
X147081139Y-108453190D02*
X147128758Y-108405571D01*
X147128758Y-108405571D02*
X147223996Y-108357952D01*
X147223996Y-108357952D02*
X147414472Y-108357952D01*
X147414472Y-108357952D02*
X147509710Y-108405571D01*
X148700187Y-109024619D02*
X148700187Y-108024619D01*
X148700187Y-108024619D02*
X149081139Y-108024619D01*
X149081139Y-108024619D02*
X149176377Y-108072238D01*
X149176377Y-108072238D02*
X149223996Y-108119857D01*
X149223996Y-108119857D02*
X149271615Y-108215095D01*
X149271615Y-108215095D02*
X149271615Y-108357952D01*
X149271615Y-108357952D02*
X149223996Y-108453190D01*
X149223996Y-108453190D02*
X149176377Y-108500809D01*
X149176377Y-108500809D02*
X149081139Y-108548428D01*
X149081139Y-108548428D02*
X148700187Y-108548428D01*
X149843044Y-109024619D02*
X149747806Y-108977000D01*
X149747806Y-108977000D02*
X149700187Y-108929380D01*
X149700187Y-108929380D02*
X149652568Y-108834142D01*
X149652568Y-108834142D02*
X149652568Y-108548428D01*
X149652568Y-108548428D02*
X149700187Y-108453190D01*
X149700187Y-108453190D02*
X149747806Y-108405571D01*
X149747806Y-108405571D02*
X149843044Y-108357952D01*
X149843044Y-108357952D02*
X149985901Y-108357952D01*
X149985901Y-108357952D02*
X150081139Y-108405571D01*
X150081139Y-108405571D02*
X150128758Y-108453190D01*
X150128758Y-108453190D02*
X150176377Y-108548428D01*
X150176377Y-108548428D02*
X150176377Y-108834142D01*
X150176377Y-108834142D02*
X150128758Y-108929380D01*
X150128758Y-108929380D02*
X150081139Y-108977000D01*
X150081139Y-108977000D02*
X149985901Y-109024619D01*
X149985901Y-109024619D02*
X149843044Y-109024619D01*
X150509711Y-108357952D02*
X150700187Y-109024619D01*
X150700187Y-109024619D02*
X150890663Y-108548428D01*
X150890663Y-108548428D02*
X151081139Y-109024619D01*
X151081139Y-109024619D02*
X151271615Y-108357952D01*
X152033520Y-108977000D02*
X151938282Y-109024619D01*
X151938282Y-109024619D02*
X151747806Y-109024619D01*
X151747806Y-109024619D02*
X151652568Y-108977000D01*
X151652568Y-108977000D02*
X151604949Y-108881761D01*
X151604949Y-108881761D02*
X151604949Y-108500809D01*
X151604949Y-108500809D02*
X151652568Y-108405571D01*
X151652568Y-108405571D02*
X151747806Y-108357952D01*
X151747806Y-108357952D02*
X151938282Y-108357952D01*
X151938282Y-108357952D02*
X152033520Y-108405571D01*
X152033520Y-108405571D02*
X152081139Y-108500809D01*
X152081139Y-108500809D02*
X152081139Y-108596047D01*
X152081139Y-108596047D02*
X151604949Y-108691285D01*
X152509711Y-109024619D02*
X152509711Y-108357952D01*
X152509711Y-108548428D02*
X152557330Y-108453190D01*
X152557330Y-108453190D02*
X152604949Y-108405571D01*
X152604949Y-108405571D02*
X152700187Y-108357952D01*
X152700187Y-108357952D02*
X152795425Y-108357952D01*
X153747807Y-108024619D02*
X154081140Y-109024619D01*
X154081140Y-109024619D02*
X154414473Y-108024619D01*
X155271616Y-109024619D02*
X154700188Y-109024619D01*
X154985902Y-109024619D02*
X154985902Y-108024619D01*
X154985902Y-108024619D02*
X154890664Y-108167476D01*
X154890664Y-108167476D02*
X154795426Y-108262714D01*
X154795426Y-108262714D02*
X154700188Y-108310333D01*
X155700188Y-108929380D02*
X155747807Y-108977000D01*
X155747807Y-108977000D02*
X155700188Y-109024619D01*
X155700188Y-109024619D02*
X155652569Y-108977000D01*
X155652569Y-108977000D02*
X155700188Y-108929380D01*
X155700188Y-108929380D02*
X155700188Y-109024619D01*
X156366854Y-108024619D02*
X156462092Y-108024619D01*
X156462092Y-108024619D02*
X156557330Y-108072238D01*
X156557330Y-108072238D02*
X156604949Y-108119857D01*
X156604949Y-108119857D02*
X156652568Y-108215095D01*
X156652568Y-108215095D02*
X156700187Y-108405571D01*
X156700187Y-108405571D02*
X156700187Y-108643666D01*
X156700187Y-108643666D02*
X156652568Y-108834142D01*
X156652568Y-108834142D02*
X156604949Y-108929380D01*
X156604949Y-108929380D02*
X156557330Y-108977000D01*
X156557330Y-108977000D02*
X156462092Y-109024619D01*
X156462092Y-109024619D02*
X156366854Y-109024619D01*
X156366854Y-109024619D02*
X156271616Y-108977000D01*
X156271616Y-108977000D02*
X156223997Y-108929380D01*
X156223997Y-108929380D02*
X156176378Y-108834142D01*
X156176378Y-108834142D02*
X156128759Y-108643666D01*
X156128759Y-108643666D02*
X156128759Y-108405571D01*
X156128759Y-108405571D02*
X156176378Y-108215095D01*
X156176378Y-108215095D02*
X156223997Y-108119857D01*
X156223997Y-108119857D02*
X156271616Y-108072238D01*
X156271616Y-108072238D02*
X156366854Y-108024619D01*
D11*
X87221027Y-59382475D02*
X87554360Y-60382475D01*
X87554360Y-60382475D02*
X87887693Y-59382475D01*
X88363884Y-60382475D02*
X88268646Y-60334856D01*
X88268646Y-60334856D02*
X88221027Y-60287236D01*
X88221027Y-60287236D02*
X88173408Y-60191998D01*
X88173408Y-60191998D02*
X88173408Y-59906284D01*
X88173408Y-59906284D02*
X88221027Y-59811046D01*
X88221027Y-59811046D02*
X88268646Y-59763427D01*
X88268646Y-59763427D02*
X88363884Y-59715808D01*
X88363884Y-59715808D02*
X88506741Y-59715808D01*
X88506741Y-59715808D02*
X88601979Y-59763427D01*
X88601979Y-59763427D02*
X88649598Y-59811046D01*
X88649598Y-59811046D02*
X88697217Y-59906284D01*
X88697217Y-59906284D02*
X88697217Y-60191998D01*
X88697217Y-60191998D02*
X88649598Y-60287236D01*
X88649598Y-60287236D02*
X88601979Y-60334856D01*
X88601979Y-60334856D02*
X88506741Y-60382475D01*
X88506741Y-60382475D02*
X88363884Y-60382475D01*
X89554360Y-59715808D02*
X89554360Y-60382475D01*
X89125789Y-59715808D02*
X89125789Y-60239617D01*
X89125789Y-60239617D02*
X89173408Y-60334856D01*
X89173408Y-60334856D02*
X89268646Y-60382475D01*
X89268646Y-60382475D02*
X89411503Y-60382475D01*
X89411503Y-60382475D02*
X89506741Y-60334856D01*
X89506741Y-60334856D02*
X89554360Y-60287236D01*
X89887694Y-59715808D02*
X90268646Y-59715808D01*
X90030551Y-59382475D02*
X90030551Y-60239617D01*
X90030551Y-60239617D02*
X90078170Y-60334856D01*
X90078170Y-60334856D02*
X90173408Y-60382475D01*
X90173408Y-60382475D02*
X90268646Y-60382475D01*
X91268647Y-59715808D02*
X91506742Y-60382475D01*
X91506742Y-60382475D02*
X91744837Y-59715808D01*
X92554361Y-60382475D02*
X92554361Y-59858665D01*
X92554361Y-59858665D02*
X92506742Y-59763427D01*
X92506742Y-59763427D02*
X92411504Y-59715808D01*
X92411504Y-59715808D02*
X92221028Y-59715808D01*
X92221028Y-59715808D02*
X92125790Y-59763427D01*
X92554361Y-60334856D02*
X92459123Y-60382475D01*
X92459123Y-60382475D02*
X92221028Y-60382475D01*
X92221028Y-60382475D02*
X92125790Y-60334856D01*
X92125790Y-60334856D02*
X92078171Y-60239617D01*
X92078171Y-60239617D02*
X92078171Y-60144379D01*
X92078171Y-60144379D02*
X92125790Y-60049141D01*
X92125790Y-60049141D02*
X92221028Y-60001522D01*
X92221028Y-60001522D02*
X92459123Y-60001522D01*
X92459123Y-60001522D02*
X92554361Y-59953903D01*
X93173409Y-60382475D02*
X93078171Y-60334856D01*
X93078171Y-60334856D02*
X93030552Y-60239617D01*
X93030552Y-60239617D02*
X93030552Y-59382475D01*
X93982933Y-59715808D02*
X93982933Y-60382475D01*
X93554362Y-59715808D02*
X93554362Y-60239617D01*
X93554362Y-60239617D02*
X93601981Y-60334856D01*
X93601981Y-60334856D02*
X93697219Y-60382475D01*
X93697219Y-60382475D02*
X93840076Y-60382475D01*
X93840076Y-60382475D02*
X93935314Y-60334856D01*
X93935314Y-60334856D02*
X93982933Y-60287236D01*
X94840076Y-60334856D02*
X94744838Y-60382475D01*
X94744838Y-60382475D02*
X94554362Y-60382475D01*
X94554362Y-60382475D02*
X94459124Y-60334856D01*
X94459124Y-60334856D02*
X94411505Y-60239617D01*
X94411505Y-60239617D02*
X94411505Y-59858665D01*
X94411505Y-59858665D02*
X94459124Y-59763427D01*
X94459124Y-59763427D02*
X94554362Y-59715808D01*
X94554362Y-59715808D02*
X94744838Y-59715808D01*
X94744838Y-59715808D02*
X94840076Y-59763427D01*
X94840076Y-59763427D02*
X94887695Y-59858665D01*
X94887695Y-59858665D02*
X94887695Y-59953903D01*
X94887695Y-59953903D02*
X94411505Y-60049141D01*
X95316267Y-60287236D02*
X95363886Y-60334856D01*
X95363886Y-60334856D02*
X95316267Y-60382475D01*
X95316267Y-60382475D02*
X95268648Y-60334856D01*
X95268648Y-60334856D02*
X95316267Y-60287236D01*
X95316267Y-60287236D02*
X95316267Y-60382475D01*
X95316267Y-59763427D02*
X95363886Y-59811046D01*
X95363886Y-59811046D02*
X95316267Y-59858665D01*
X95316267Y-59858665D02*
X95268648Y-59811046D01*
X95268648Y-59811046D02*
X95316267Y-59763427D01*
X95316267Y-59763427D02*
X95316267Y-59858665D01*
X87935312Y-61897180D02*
X87887693Y-61944800D01*
X87887693Y-61944800D02*
X87744836Y-61992419D01*
X87744836Y-61992419D02*
X87649598Y-61992419D01*
X87649598Y-61992419D02*
X87506741Y-61944800D01*
X87506741Y-61944800D02*
X87411503Y-61849561D01*
X87411503Y-61849561D02*
X87363884Y-61754323D01*
X87363884Y-61754323D02*
X87316265Y-61563847D01*
X87316265Y-61563847D02*
X87316265Y-61420990D01*
X87316265Y-61420990D02*
X87363884Y-61230514D01*
X87363884Y-61230514D02*
X87411503Y-61135276D01*
X87411503Y-61135276D02*
X87506741Y-61040038D01*
X87506741Y-61040038D02*
X87649598Y-60992419D01*
X87649598Y-60992419D02*
X87744836Y-60992419D01*
X87744836Y-60992419D02*
X87887693Y-61040038D01*
X87887693Y-61040038D02*
X87935312Y-61087657D01*
X88363884Y-61992419D02*
X88363884Y-60992419D01*
X88792455Y-61992419D02*
X88792455Y-61468609D01*
X88792455Y-61468609D02*
X88744836Y-61373371D01*
X88744836Y-61373371D02*
X88649598Y-61325752D01*
X88649598Y-61325752D02*
X88506741Y-61325752D01*
X88506741Y-61325752D02*
X88411503Y-61373371D01*
X88411503Y-61373371D02*
X88363884Y-61420990D01*
X89649598Y-61944800D02*
X89554360Y-61992419D01*
X89554360Y-61992419D02*
X89363884Y-61992419D01*
X89363884Y-61992419D02*
X89268646Y-61944800D01*
X89268646Y-61944800D02*
X89221027Y-61849561D01*
X89221027Y-61849561D02*
X89221027Y-61468609D01*
X89221027Y-61468609D02*
X89268646Y-61373371D01*
X89268646Y-61373371D02*
X89363884Y-61325752D01*
X89363884Y-61325752D02*
X89554360Y-61325752D01*
X89554360Y-61325752D02*
X89649598Y-61373371D01*
X89649598Y-61373371D02*
X89697217Y-61468609D01*
X89697217Y-61468609D02*
X89697217Y-61563847D01*
X89697217Y-61563847D02*
X89221027Y-61659085D01*
X90554360Y-61944800D02*
X90459122Y-61992419D01*
X90459122Y-61992419D02*
X90268646Y-61992419D01*
X90268646Y-61992419D02*
X90173408Y-61944800D01*
X90173408Y-61944800D02*
X90125789Y-61897180D01*
X90125789Y-61897180D02*
X90078170Y-61801942D01*
X90078170Y-61801942D02*
X90078170Y-61516228D01*
X90078170Y-61516228D02*
X90125789Y-61420990D01*
X90125789Y-61420990D02*
X90173408Y-61373371D01*
X90173408Y-61373371D02*
X90268646Y-61325752D01*
X90268646Y-61325752D02*
X90459122Y-61325752D01*
X90459122Y-61325752D02*
X90554360Y-61373371D01*
X90982932Y-61992419D02*
X90982932Y-60992419D01*
X91078170Y-61611466D02*
X91363884Y-61992419D01*
X91363884Y-61325752D02*
X90982932Y-61706704D01*
X92554361Y-61992419D02*
X92554361Y-61325752D01*
X92554361Y-61420990D02*
X92601980Y-61373371D01*
X92601980Y-61373371D02*
X92697218Y-61325752D01*
X92697218Y-61325752D02*
X92840075Y-61325752D01*
X92840075Y-61325752D02*
X92935313Y-61373371D01*
X92935313Y-61373371D02*
X92982932Y-61468609D01*
X92982932Y-61468609D02*
X92982932Y-61992419D01*
X92982932Y-61468609D02*
X93030551Y-61373371D01*
X93030551Y-61373371D02*
X93125789Y-61325752D01*
X93125789Y-61325752D02*
X93268646Y-61325752D01*
X93268646Y-61325752D02*
X93363885Y-61373371D01*
X93363885Y-61373371D02*
X93411504Y-61468609D01*
X93411504Y-61468609D02*
X93411504Y-61992419D01*
X94316265Y-61992419D02*
X94316265Y-61468609D01*
X94316265Y-61468609D02*
X94268646Y-61373371D01*
X94268646Y-61373371D02*
X94173408Y-61325752D01*
X94173408Y-61325752D02*
X93982932Y-61325752D01*
X93982932Y-61325752D02*
X93887694Y-61373371D01*
X94316265Y-61944800D02*
X94221027Y-61992419D01*
X94221027Y-61992419D02*
X93982932Y-61992419D01*
X93982932Y-61992419D02*
X93887694Y-61944800D01*
X93887694Y-61944800D02*
X93840075Y-61849561D01*
X93840075Y-61849561D02*
X93840075Y-61754323D01*
X93840075Y-61754323D02*
X93887694Y-61659085D01*
X93887694Y-61659085D02*
X93982932Y-61611466D01*
X93982932Y-61611466D02*
X94221027Y-61611466D01*
X94221027Y-61611466D02*
X94316265Y-61563847D01*
X94792456Y-61325752D02*
X94792456Y-61992419D01*
X94792456Y-61420990D02*
X94840075Y-61373371D01*
X94840075Y-61373371D02*
X94935313Y-61325752D01*
X94935313Y-61325752D02*
X95078170Y-61325752D01*
X95078170Y-61325752D02*
X95173408Y-61373371D01*
X95173408Y-61373371D02*
X95221027Y-61468609D01*
X95221027Y-61468609D02*
X95221027Y-61992419D01*
X96125789Y-61325752D02*
X96125789Y-61992419D01*
X95697218Y-61325752D02*
X95697218Y-61849561D01*
X95697218Y-61849561D02*
X95744837Y-61944800D01*
X95744837Y-61944800D02*
X95840075Y-61992419D01*
X95840075Y-61992419D02*
X95982932Y-61992419D01*
X95982932Y-61992419D02*
X96078170Y-61944800D01*
X96078170Y-61944800D02*
X96125789Y-61897180D01*
X97030551Y-61992419D02*
X97030551Y-61468609D01*
X97030551Y-61468609D02*
X96982932Y-61373371D01*
X96982932Y-61373371D02*
X96887694Y-61325752D01*
X96887694Y-61325752D02*
X96697218Y-61325752D01*
X96697218Y-61325752D02*
X96601980Y-61373371D01*
X97030551Y-61944800D02*
X96935313Y-61992419D01*
X96935313Y-61992419D02*
X96697218Y-61992419D01*
X96697218Y-61992419D02*
X96601980Y-61944800D01*
X96601980Y-61944800D02*
X96554361Y-61849561D01*
X96554361Y-61849561D02*
X96554361Y-61754323D01*
X96554361Y-61754323D02*
X96601980Y-61659085D01*
X96601980Y-61659085D02*
X96697218Y-61611466D01*
X96697218Y-61611466D02*
X96935313Y-61611466D01*
X96935313Y-61611466D02*
X97030551Y-61563847D01*
X97649599Y-61992419D02*
X97554361Y-61944800D01*
X97554361Y-61944800D02*
X97506742Y-61849561D01*
X97506742Y-61849561D02*
X97506742Y-60992419D01*
X98173409Y-61992419D02*
X98078171Y-61944800D01*
X98078171Y-61944800D02*
X98030552Y-61849561D01*
X98030552Y-61849561D02*
X98030552Y-60992419D01*
X98459124Y-61325752D02*
X98697219Y-61992419D01*
X98935314Y-61325752D02*
X98697219Y-61992419D01*
X98697219Y-61992419D02*
X98601981Y-62230514D01*
X98601981Y-62230514D02*
X98554362Y-62278133D01*
X98554362Y-62278133D02*
X98459124Y-62325752D01*
D12*
X86969423Y-55779238D02*
X87636089Y-57779238D01*
X87636089Y-57779238D02*
X88302756Y-55779238D01*
X89255137Y-57779238D02*
X89064661Y-57684000D01*
X89064661Y-57684000D02*
X88969423Y-57588761D01*
X88969423Y-57588761D02*
X88874185Y-57398285D01*
X88874185Y-57398285D02*
X88874185Y-56826857D01*
X88874185Y-56826857D02*
X88969423Y-56636380D01*
X88969423Y-56636380D02*
X89064661Y-56541142D01*
X89064661Y-56541142D02*
X89255137Y-56445904D01*
X89255137Y-56445904D02*
X89540852Y-56445904D01*
X89540852Y-56445904D02*
X89731328Y-56541142D01*
X89731328Y-56541142D02*
X89826566Y-56636380D01*
X89826566Y-56636380D02*
X89921804Y-56826857D01*
X89921804Y-56826857D02*
X89921804Y-57398285D01*
X89921804Y-57398285D02*
X89826566Y-57588761D01*
X89826566Y-57588761D02*
X89731328Y-57684000D01*
X89731328Y-57684000D02*
X89540852Y-57779238D01*
X89540852Y-57779238D02*
X89255137Y-57779238D01*
X91636090Y-56445904D02*
X91636090Y-57779238D01*
X90778947Y-56445904D02*
X90778947Y-57493523D01*
X90778947Y-57493523D02*
X90874185Y-57684000D01*
X90874185Y-57684000D02*
X91064661Y-57779238D01*
X91064661Y-57779238D02*
X91350376Y-57779238D01*
X91350376Y-57779238D02*
X91540852Y-57684000D01*
X91540852Y-57684000D02*
X91636090Y-57588761D01*
X92302757Y-56445904D02*
X93064661Y-56445904D01*
X92588471Y-55779238D02*
X92588471Y-57493523D01*
X92588471Y-57493523D02*
X92683709Y-57684000D01*
X92683709Y-57684000D02*
X92874185Y-57779238D01*
X92874185Y-57779238D02*
X93064661Y-57779238D01*
X95159900Y-57207809D02*
X96112281Y-57207809D01*
X94969424Y-57779238D02*
X95636090Y-55779238D01*
X95636090Y-55779238D02*
X96302757Y-57779238D01*
X97826567Y-57779238D02*
X97826567Y-55779238D01*
X97826567Y-57684000D02*
X97636091Y-57779238D01*
X97636091Y-57779238D02*
X97255138Y-57779238D01*
X97255138Y-57779238D02*
X97064662Y-57684000D01*
X97064662Y-57684000D02*
X96969424Y-57588761D01*
X96969424Y-57588761D02*
X96874186Y-57398285D01*
X96874186Y-57398285D02*
X96874186Y-56826857D01*
X96874186Y-56826857D02*
X96969424Y-56636380D01*
X96969424Y-56636380D02*
X97064662Y-56541142D01*
X97064662Y-56541142D02*
X97255138Y-56445904D01*
X97255138Y-56445904D02*
X97636091Y-56445904D01*
X97636091Y-56445904D02*
X97826567Y-56541142D01*
X98778948Y-56445904D02*
X98778948Y-58160190D01*
X98778948Y-58160190D02*
X98683710Y-58350666D01*
X98683710Y-58350666D02*
X98493234Y-58445904D01*
X98493234Y-58445904D02*
X98397996Y-58445904D01*
X98778948Y-55779238D02*
X98683710Y-55874476D01*
X98683710Y-55874476D02*
X98778948Y-55969714D01*
X98778948Y-55969714D02*
X98874186Y-55874476D01*
X98874186Y-55874476D02*
X98778948Y-55779238D01*
X98778948Y-55779238D02*
X98778948Y-55969714D01*
X157190649Y-58402956D02*
X155190649Y-59069622D01*
X155190649Y-59069622D02*
X157190649Y-59736289D01*
X155190649Y-60688670D02*
X155285888Y-60498194D01*
X155285888Y-60498194D02*
X155381126Y-60402956D01*
X155381126Y-60402956D02*
X155571602Y-60307718D01*
X155571602Y-60307718D02*
X156143030Y-60307718D01*
X156143030Y-60307718D02*
X156333507Y-60402956D01*
X156333507Y-60402956D02*
X156428745Y-60498194D01*
X156428745Y-60498194D02*
X156523983Y-60688670D01*
X156523983Y-60688670D02*
X156523983Y-60974385D01*
X156523983Y-60974385D02*
X156428745Y-61164861D01*
X156428745Y-61164861D02*
X156333507Y-61260099D01*
X156333507Y-61260099D02*
X156143030Y-61355337D01*
X156143030Y-61355337D02*
X155571602Y-61355337D01*
X155571602Y-61355337D02*
X155381126Y-61260099D01*
X155381126Y-61260099D02*
X155285888Y-61164861D01*
X155285888Y-61164861D02*
X155190649Y-60974385D01*
X155190649Y-60974385D02*
X155190649Y-60688670D01*
X156523983Y-63069623D02*
X155190649Y-63069623D01*
X156523983Y-62212480D02*
X155476364Y-62212480D01*
X155476364Y-62212480D02*
X155285888Y-62307718D01*
X155285888Y-62307718D02*
X155190649Y-62498194D01*
X155190649Y-62498194D02*
X155190649Y-62783909D01*
X155190649Y-62783909D02*
X155285888Y-62974385D01*
X155285888Y-62974385D02*
X155381126Y-63069623D01*
X156523983Y-63736290D02*
X156523983Y-64498194D01*
X157190649Y-64022004D02*
X155476364Y-64022004D01*
X155476364Y-64022004D02*
X155285888Y-64117242D01*
X155285888Y-64117242D02*
X155190649Y-64307718D01*
X155190649Y-64307718D02*
X155190649Y-64498194D01*
X155381126Y-65164861D02*
X155285888Y-65260099D01*
X155285888Y-65260099D02*
X155190649Y-65164861D01*
X155190649Y-65164861D02*
X155285888Y-65069623D01*
X155285888Y-65069623D02*
X155381126Y-65164861D01*
X155381126Y-65164861D02*
X155190649Y-65164861D01*
X156428745Y-65164861D02*
X156333507Y-65260099D01*
X156333507Y-65260099D02*
X156238268Y-65164861D01*
X156238268Y-65164861D02*
X156333507Y-65069623D01*
X156333507Y-65069623D02*
X156428745Y-65164861D01*
X156428745Y-65164861D02*
X156238268Y-65164861D01*
X155762078Y-67545814D02*
X155762078Y-68498195D01*
X155190649Y-67355338D02*
X157190649Y-68022004D01*
X157190649Y-68022004D02*
X155190649Y-68688671D01*
X155190649Y-70212481D02*
X157190649Y-70212481D01*
X155285888Y-70212481D02*
X155190649Y-70022005D01*
X155190649Y-70022005D02*
X155190649Y-69641052D01*
X155190649Y-69641052D02*
X155285888Y-69450576D01*
X155285888Y-69450576D02*
X155381126Y-69355338D01*
X155381126Y-69355338D02*
X155571602Y-69260100D01*
X155571602Y-69260100D02*
X156143030Y-69260100D01*
X156143030Y-69260100D02*
X156333507Y-69355338D01*
X156333507Y-69355338D02*
X156428745Y-69450576D01*
X156428745Y-69450576D02*
X156523983Y-69641052D01*
X156523983Y-69641052D02*
X156523983Y-70022005D01*
X156523983Y-70022005D02*
X156428745Y-70212481D01*
X156523983Y-71164862D02*
X154809697Y-71164862D01*
X154809697Y-71164862D02*
X154619221Y-71069624D01*
X154619221Y-71069624D02*
X154523983Y-70879148D01*
X154523983Y-70879148D02*
X154523983Y-70783910D01*
X157190649Y-71164862D02*
X157095411Y-71069624D01*
X157095411Y-71069624D02*
X157000173Y-71164862D01*
X157000173Y-71164862D02*
X157095411Y-71260100D01*
X157095411Y-71260100D02*
X157190649Y-71164862D01*
X157190649Y-71164862D02*
X157000173Y-71164862D01*
X151970761Y-53069622D02*
X153970761Y-53069622D01*
X151970761Y-54307717D02*
X152066000Y-54117241D01*
X152066000Y-54117241D02*
X152161238Y-54022003D01*
X152161238Y-54022003D02*
X152351714Y-53926765D01*
X152351714Y-53926765D02*
X152923142Y-53926765D01*
X152923142Y-53926765D02*
X153113619Y-54022003D01*
X153113619Y-54022003D02*
X153208857Y-54117241D01*
X153208857Y-54117241D02*
X153304095Y-54307717D01*
X153304095Y-54307717D02*
X153304095Y-54593432D01*
X153304095Y-54593432D02*
X153208857Y-54783908D01*
X153208857Y-54783908D02*
X153113619Y-54879146D01*
X153113619Y-54879146D02*
X152923142Y-54974384D01*
X152923142Y-54974384D02*
X152351714Y-54974384D01*
X152351714Y-54974384D02*
X152161238Y-54879146D01*
X152161238Y-54879146D02*
X152066000Y-54783908D01*
X152066000Y-54783908D02*
X151970761Y-54593432D01*
X151970761Y-54593432D02*
X151970761Y-54307717D01*
X153304095Y-56688670D02*
X151970761Y-56688670D01*
X153304095Y-55831527D02*
X152256476Y-55831527D01*
X152256476Y-55831527D02*
X152066000Y-55926765D01*
X152066000Y-55926765D02*
X151970761Y-56117241D01*
X151970761Y-56117241D02*
X151970761Y-56402956D01*
X151970761Y-56402956D02*
X152066000Y-56593432D01*
X152066000Y-56593432D02*
X152161238Y-56688670D01*
X153304095Y-57355337D02*
X153304095Y-58117241D01*
X153970761Y-57641051D02*
X152256476Y-57641051D01*
X152256476Y-57641051D02*
X152066000Y-57736289D01*
X152066000Y-57736289D02*
X151970761Y-57926765D01*
X151970761Y-57926765D02*
X151970761Y-58117241D01*
X152161238Y-58783908D02*
X152066000Y-58879146D01*
X152066000Y-58879146D02*
X151970761Y-58783908D01*
X151970761Y-58783908D02*
X152066000Y-58688670D01*
X152066000Y-58688670D02*
X152161238Y-58783908D01*
X152161238Y-58783908D02*
X151970761Y-58783908D01*
X153208857Y-58783908D02*
X153113619Y-58879146D01*
X153113619Y-58879146D02*
X153018380Y-58783908D01*
X153018380Y-58783908D02*
X153113619Y-58688670D01*
X153113619Y-58688670D02*
X153208857Y-58783908D01*
X153208857Y-58783908D02*
X153018380Y-58783908D01*
X153970761Y-61069623D02*
X153970761Y-62307718D01*
X153970761Y-62307718D02*
X153208857Y-61641051D01*
X153208857Y-61641051D02*
X153208857Y-61926766D01*
X153208857Y-61926766D02*
X153113619Y-62117242D01*
X153113619Y-62117242D02*
X153018380Y-62212480D01*
X153018380Y-62212480D02*
X152827904Y-62307718D01*
X152827904Y-62307718D02*
X152351714Y-62307718D01*
X152351714Y-62307718D02*
X152161238Y-62212480D01*
X152161238Y-62212480D02*
X152066000Y-62117242D01*
X152066000Y-62117242D02*
X151970761Y-61926766D01*
X151970761Y-61926766D02*
X151970761Y-61355337D01*
X151970761Y-61355337D02*
X152066000Y-61164861D01*
X152066000Y-61164861D02*
X152161238Y-61069623D01*
X152542190Y-63069623D02*
X152542190Y-64022004D01*
X151970761Y-62879147D02*
X153970761Y-63545813D01*
X153970761Y-63545813D02*
X151970761Y-64212480D01*
X151970761Y-66402957D02*
X153970761Y-66402957D01*
X153970761Y-66402957D02*
X152542190Y-67069624D01*
X152542190Y-67069624D02*
X153970761Y-67736290D01*
X153970761Y-67736290D02*
X151970761Y-67736290D01*
X151970761Y-69545814D02*
X153018380Y-69545814D01*
X153018380Y-69545814D02*
X153208857Y-69450576D01*
X153208857Y-69450576D02*
X153304095Y-69260100D01*
X153304095Y-69260100D02*
X153304095Y-68879147D01*
X153304095Y-68879147D02*
X153208857Y-68688671D01*
X152066000Y-69545814D02*
X151970761Y-69355338D01*
X151970761Y-69355338D02*
X151970761Y-68879147D01*
X151970761Y-68879147D02*
X152066000Y-68688671D01*
X152066000Y-68688671D02*
X152256476Y-68593433D01*
X152256476Y-68593433D02*
X152446952Y-68593433D01*
X152446952Y-68593433D02*
X152637428Y-68688671D01*
X152637428Y-68688671D02*
X152732666Y-68879147D01*
X152732666Y-68879147D02*
X152732666Y-69355338D01*
X152732666Y-69355338D02*
X152827904Y-69545814D01*
X151970761Y-70307719D02*
X153304095Y-71355338D01*
X153304095Y-70307719D02*
X151970761Y-71355338D01*
D13*
X86930274Y-110108000D02*
X87644560Y-110346095D01*
X87644560Y-110346095D02*
X88835036Y-110346095D01*
X88835036Y-110346095D02*
X89311227Y-110108000D01*
X89311227Y-110108000D02*
X89549322Y-109869904D01*
X89549322Y-109869904D02*
X89787417Y-109393714D01*
X89787417Y-109393714D02*
X89787417Y-108917523D01*
X89787417Y-108917523D02*
X89549322Y-108441333D01*
X89549322Y-108441333D02*
X89311227Y-108203238D01*
X89311227Y-108203238D02*
X88835036Y-107965142D01*
X88835036Y-107965142D02*
X87882655Y-107727047D01*
X87882655Y-107727047D02*
X87406465Y-107488952D01*
X87406465Y-107488952D02*
X87168370Y-107250857D01*
X87168370Y-107250857D02*
X86930274Y-106774666D01*
X86930274Y-106774666D02*
X86930274Y-106298476D01*
X86930274Y-106298476D02*
X87168370Y-105822285D01*
X87168370Y-105822285D02*
X87406465Y-105584190D01*
X87406465Y-105584190D02*
X87882655Y-105346095D01*
X87882655Y-105346095D02*
X89073132Y-105346095D01*
X89073132Y-105346095D02*
X89787417Y-105584190D01*
X91692179Y-110108000D02*
X92406465Y-110346095D01*
X92406465Y-110346095D02*
X93596941Y-110346095D01*
X93596941Y-110346095D02*
X94073132Y-110108000D01*
X94073132Y-110108000D02*
X94311227Y-109869904D01*
X94311227Y-109869904D02*
X94549322Y-109393714D01*
X94549322Y-109393714D02*
X94549322Y-108917523D01*
X94549322Y-108917523D02*
X94311227Y-108441333D01*
X94311227Y-108441333D02*
X94073132Y-108203238D01*
X94073132Y-108203238D02*
X93596941Y-107965142D01*
X93596941Y-107965142D02*
X92644560Y-107727047D01*
X92644560Y-107727047D02*
X92168370Y-107488952D01*
X92168370Y-107488952D02*
X91930275Y-107250857D01*
X91930275Y-107250857D02*
X91692179Y-106774666D01*
X91692179Y-106774666D02*
X91692179Y-106298476D01*
X91692179Y-106298476D02*
X91930275Y-105822285D01*
X91930275Y-105822285D02*
X92168370Y-105584190D01*
X92168370Y-105584190D02*
X92644560Y-105346095D01*
X92644560Y-105346095D02*
X93835037Y-105346095D01*
X93835037Y-105346095D02*
X94549322Y-105584190D01*
X100501704Y-107727047D02*
X102168370Y-107727047D01*
X102882656Y-110346095D02*
X100501704Y-110346095D01*
X100501704Y-110346095D02*
X100501704Y-105346095D01*
X100501704Y-105346095D02*
X102882656Y-105346095D01*
X105739799Y-110346095D02*
X105263609Y-110108000D01*
X105263609Y-110108000D02*
X105025514Y-109631809D01*
X105025514Y-109631809D02*
X105025514Y-105346095D01*
X109549324Y-110108000D02*
X109073133Y-110346095D01*
X109073133Y-110346095D02*
X108120752Y-110346095D01*
X108120752Y-110346095D02*
X107644562Y-110108000D01*
X107644562Y-110108000D02*
X107406466Y-109631809D01*
X107406466Y-109631809D02*
X107406466Y-107727047D01*
X107406466Y-107727047D02*
X107644562Y-107250857D01*
X107644562Y-107250857D02*
X108120752Y-107012761D01*
X108120752Y-107012761D02*
X109073133Y-107012761D01*
X109073133Y-107012761D02*
X109549324Y-107250857D01*
X109549324Y-107250857D02*
X109787419Y-107727047D01*
X109787419Y-107727047D02*
X109787419Y-108203238D01*
X109787419Y-108203238D02*
X107406466Y-108679428D01*
X114073133Y-110108000D02*
X113596942Y-110346095D01*
X113596942Y-110346095D02*
X112644561Y-110346095D01*
X112644561Y-110346095D02*
X112168371Y-110108000D01*
X112168371Y-110108000D02*
X111930276Y-109869904D01*
X111930276Y-109869904D02*
X111692180Y-109393714D01*
X111692180Y-109393714D02*
X111692180Y-107965142D01*
X111692180Y-107965142D02*
X111930276Y-107488952D01*
X111930276Y-107488952D02*
X112168371Y-107250857D01*
X112168371Y-107250857D02*
X112644561Y-107012761D01*
X112644561Y-107012761D02*
X113596942Y-107012761D01*
X113596942Y-107012761D02*
X114073133Y-107250857D01*
X115501704Y-107012761D02*
X117406466Y-107012761D01*
X116215990Y-105346095D02*
X116215990Y-109631809D01*
X116215990Y-109631809D02*
X116454085Y-110108000D01*
X116454085Y-110108000D02*
X116930275Y-110346095D01*
X116930275Y-110346095D02*
X117406466Y-110346095D01*
X119073133Y-110346095D02*
X119073133Y-107012761D01*
X119073133Y-107965142D02*
X119311228Y-107488952D01*
X119311228Y-107488952D02*
X119549323Y-107250857D01*
X119549323Y-107250857D02*
X120025514Y-107012761D01*
X120025514Y-107012761D02*
X120501704Y-107012761D01*
X122882656Y-110346095D02*
X122406466Y-110108000D01*
X122406466Y-110108000D02*
X122168371Y-109869904D01*
X122168371Y-109869904D02*
X121930275Y-109393714D01*
X121930275Y-109393714D02*
X121930275Y-107965142D01*
X121930275Y-107965142D02*
X122168371Y-107488952D01*
X122168371Y-107488952D02*
X122406466Y-107250857D01*
X122406466Y-107250857D02*
X122882656Y-107012761D01*
X122882656Y-107012761D02*
X123596942Y-107012761D01*
X123596942Y-107012761D02*
X124073133Y-107250857D01*
X124073133Y-107250857D02*
X124311228Y-107488952D01*
X124311228Y-107488952D02*
X124549323Y-107965142D01*
X124549323Y-107965142D02*
X124549323Y-109393714D01*
X124549323Y-109393714D02*
X124311228Y-109869904D01*
X124311228Y-109869904D02*
X124073133Y-110108000D01*
X124073133Y-110108000D02*
X123596942Y-110346095D01*
X123596942Y-110346095D02*
X122882656Y-110346095D01*
X126692181Y-107012761D02*
X126692181Y-110346095D01*
X126692181Y-107488952D02*
X126930276Y-107250857D01*
X126930276Y-107250857D02*
X127406466Y-107012761D01*
X127406466Y-107012761D02*
X128120752Y-107012761D01*
X128120752Y-107012761D02*
X128596943Y-107250857D01*
X128596943Y-107250857D02*
X128835038Y-107727047D01*
X128835038Y-107727047D02*
X128835038Y-110346095D01*
X131215991Y-110346095D02*
X131215991Y-107012761D01*
X131215991Y-105346095D02*
X130977895Y-105584190D01*
X130977895Y-105584190D02*
X131215991Y-105822285D01*
X131215991Y-105822285D02*
X131454086Y-105584190D01*
X131454086Y-105584190D02*
X131215991Y-105346095D01*
X131215991Y-105346095D02*
X131215991Y-105822285D01*
X135739800Y-110108000D02*
X135263609Y-110346095D01*
X135263609Y-110346095D02*
X134311228Y-110346095D01*
X134311228Y-110346095D02*
X133835038Y-110108000D01*
X133835038Y-110108000D02*
X133596943Y-109869904D01*
X133596943Y-109869904D02*
X133358847Y-109393714D01*
X133358847Y-109393714D02*
X133358847Y-107965142D01*
X133358847Y-107965142D02*
X133596943Y-107488952D01*
X133596943Y-107488952D02*
X133835038Y-107250857D01*
X133835038Y-107250857D02*
X134311228Y-107012761D01*
X134311228Y-107012761D02*
X135263609Y-107012761D01*
X135263609Y-107012761D02*
X135739800Y-107250857D01*
X137644561Y-110108000D02*
X138120752Y-110346095D01*
X138120752Y-110346095D02*
X139073133Y-110346095D01*
X139073133Y-110346095D02*
X139549323Y-110108000D01*
X139549323Y-110108000D02*
X139787419Y-109631809D01*
X139787419Y-109631809D02*
X139787419Y-109393714D01*
X139787419Y-109393714D02*
X139549323Y-108917523D01*
X139549323Y-108917523D02*
X139073133Y-108679428D01*
X139073133Y-108679428D02*
X138358847Y-108679428D01*
X138358847Y-108679428D02*
X137882657Y-108441333D01*
X137882657Y-108441333D02*
X137644561Y-107965142D01*
X137644561Y-107965142D02*
X137644561Y-107727047D01*
X137644561Y-107727047D02*
X137882657Y-107250857D01*
X137882657Y-107250857D02*
X138358847Y-107012761D01*
X138358847Y-107012761D02*
X139073133Y-107012761D01*
X139073133Y-107012761D02*
X139549323Y-107250857D01*
D10*
X155394619Y-77881241D02*
X155394619Y-78357431D01*
X155394619Y-78357431D02*
X155870809Y-78405050D01*
X155870809Y-78405050D02*
X155823190Y-78357431D01*
X155823190Y-78357431D02*
X155775571Y-78262193D01*
X155775571Y-78262193D02*
X155775571Y-78024098D01*
X155775571Y-78024098D02*
X155823190Y-77928860D01*
X155823190Y-77928860D02*
X155870809Y-77881241D01*
X155870809Y-77881241D02*
X155966047Y-77833622D01*
X155966047Y-77833622D02*
X156204142Y-77833622D01*
X156204142Y-77833622D02*
X156299380Y-77881241D01*
X156299380Y-77881241D02*
X156347000Y-77928860D01*
X156347000Y-77928860D02*
X156394619Y-78024098D01*
X156394619Y-78024098D02*
X156394619Y-78262193D01*
X156394619Y-78262193D02*
X156347000Y-78357431D01*
X156347000Y-78357431D02*
X156299380Y-78405050D01*
X155394619Y-77547907D02*
X156394619Y-77214574D01*
X156394619Y-77214574D02*
X155394619Y-76881241D01*
X155394619Y-75595526D02*
X155394619Y-75405050D01*
X155394619Y-75405050D02*
X155442238Y-75309812D01*
X155442238Y-75309812D02*
X155537476Y-75214574D01*
X155537476Y-75214574D02*
X155727952Y-75166955D01*
X155727952Y-75166955D02*
X156061285Y-75166955D01*
X156061285Y-75166955D02*
X156251761Y-75214574D01*
X156251761Y-75214574D02*
X156347000Y-75309812D01*
X156347000Y-75309812D02*
X156394619Y-75405050D01*
X156394619Y-75405050D02*
X156394619Y-75595526D01*
X156394619Y-75595526D02*
X156347000Y-75690764D01*
X156347000Y-75690764D02*
X156251761Y-75786002D01*
X156251761Y-75786002D02*
X156061285Y-75833621D01*
X156061285Y-75833621D02*
X155727952Y-75833621D01*
X155727952Y-75833621D02*
X155537476Y-75786002D01*
X155537476Y-75786002D02*
X155442238Y-75690764D01*
X155442238Y-75690764D02*
X155394619Y-75595526D01*
X155727952Y-74309812D02*
X156394619Y-74309812D01*
X155727952Y-74738383D02*
X156251761Y-74738383D01*
X156251761Y-74738383D02*
X156347000Y-74690764D01*
X156347000Y-74690764D02*
X156394619Y-74595526D01*
X156394619Y-74595526D02*
X156394619Y-74452669D01*
X156394619Y-74452669D02*
X156347000Y-74357431D01*
X156347000Y-74357431D02*
X156299380Y-74309812D01*
X155727952Y-73976478D02*
X155727952Y-73595526D01*
X155394619Y-73833621D02*
X156251761Y-73833621D01*
X156251761Y-73833621D02*
X156347000Y-73786002D01*
X156347000Y-73786002D02*
X156394619Y-73690764D01*
X156394619Y-73690764D02*
X156394619Y-73595526D01*
D12*
X80320761Y-84684661D02*
X80320761Y-86017994D01*
X80320761Y-86017994D02*
X78320761Y-85160851D01*
X80320761Y-86494185D02*
X78320761Y-87160851D01*
X78320761Y-87160851D02*
X80320761Y-87827518D01*
X79082666Y-90017995D02*
X79082666Y-91541805D01*
X79654095Y-94875138D02*
X78320761Y-94875138D01*
X80416000Y-94398947D02*
X78987428Y-93922757D01*
X78987428Y-93922757D02*
X78987428Y-95160852D01*
X80320761Y-96303709D02*
X80320761Y-96494186D01*
X80320761Y-96494186D02*
X80225523Y-96684662D01*
X80225523Y-96684662D02*
X80130285Y-96779900D01*
X80130285Y-96779900D02*
X79939809Y-96875138D01*
X79939809Y-96875138D02*
X79558857Y-96970376D01*
X79558857Y-96970376D02*
X79082666Y-96970376D01*
X79082666Y-96970376D02*
X78701714Y-96875138D01*
X78701714Y-96875138D02*
X78511238Y-96779900D01*
X78511238Y-96779900D02*
X78416000Y-96684662D01*
X78416000Y-96684662D02*
X78320761Y-96494186D01*
X78320761Y-96494186D02*
X78320761Y-96303709D01*
X78320761Y-96303709D02*
X78416000Y-96113233D01*
X78416000Y-96113233D02*
X78511238Y-96017995D01*
X78511238Y-96017995D02*
X78701714Y-95922757D01*
X78701714Y-95922757D02*
X79082666Y-95827519D01*
X79082666Y-95827519D02*
X79558857Y-95827519D01*
X79558857Y-95827519D02*
X79939809Y-95922757D01*
X79939809Y-95922757D02*
X80130285Y-96017995D01*
X80130285Y-96017995D02*
X80225523Y-96113233D01*
X80225523Y-96113233D02*
X80320761Y-96303709D01*
X80320761Y-97541805D02*
X78320761Y-98208471D01*
X78320761Y-98208471D02*
X80320761Y-98875138D01*
X78320761Y-101065615D02*
X80320761Y-101065615D01*
X79654095Y-102017996D02*
X78320761Y-102017996D01*
X79463619Y-102017996D02*
X79558857Y-102113234D01*
X79558857Y-102113234D02*
X79654095Y-102303710D01*
X79654095Y-102303710D02*
X79654095Y-102589425D01*
X79654095Y-102589425D02*
X79558857Y-102779901D01*
X79558857Y-102779901D02*
X79368380Y-102875139D01*
X79368380Y-102875139D02*
X78320761Y-102875139D01*
D10*
X163702238Y-77743622D02*
X163654619Y-77838860D01*
X163654619Y-77838860D02*
X163654619Y-77981717D01*
X163654619Y-77981717D02*
X163702238Y-78124574D01*
X163702238Y-78124574D02*
X163797476Y-78219812D01*
X163797476Y-78219812D02*
X163892714Y-78267431D01*
X163892714Y-78267431D02*
X164083190Y-78315050D01*
X164083190Y-78315050D02*
X164226047Y-78315050D01*
X164226047Y-78315050D02*
X164416523Y-78267431D01*
X164416523Y-78267431D02*
X164511761Y-78219812D01*
X164511761Y-78219812D02*
X164607000Y-78124574D01*
X164607000Y-78124574D02*
X164654619Y-77981717D01*
X164654619Y-77981717D02*
X164654619Y-77886479D01*
X164654619Y-77886479D02*
X164607000Y-77743622D01*
X164607000Y-77743622D02*
X164559380Y-77696003D01*
X164559380Y-77696003D02*
X164226047Y-77696003D01*
X164226047Y-77696003D02*
X164226047Y-77886479D01*
X164654619Y-77267431D02*
X163654619Y-77267431D01*
X163654619Y-77267431D02*
X164654619Y-76696003D01*
X164654619Y-76696003D02*
X163654619Y-76696003D01*
X164654619Y-76219812D02*
X163654619Y-76219812D01*
X163654619Y-76219812D02*
X163654619Y-75981717D01*
X163654619Y-75981717D02*
X163702238Y-75838860D01*
X163702238Y-75838860D02*
X163797476Y-75743622D01*
X163797476Y-75743622D02*
X163892714Y-75696003D01*
X163892714Y-75696003D02*
X164083190Y-75648384D01*
X164083190Y-75648384D02*
X164226047Y-75648384D01*
X164226047Y-75648384D02*
X164416523Y-75696003D01*
X164416523Y-75696003D02*
X164511761Y-75743622D01*
X164511761Y-75743622D02*
X164607000Y-75838860D01*
X164607000Y-75838860D02*
X164654619Y-75981717D01*
X164654619Y-75981717D02*
X164654619Y-76219812D01*
D12*
X161785523Y-67252756D02*
X161880761Y-67062280D01*
X161880761Y-67062280D02*
X161880761Y-66776566D01*
X161880761Y-66776566D02*
X161785523Y-66490851D01*
X161785523Y-66490851D02*
X161595047Y-66300375D01*
X161595047Y-66300375D02*
X161404571Y-66205137D01*
X161404571Y-66205137D02*
X161023619Y-66109899D01*
X161023619Y-66109899D02*
X160737904Y-66109899D01*
X160737904Y-66109899D02*
X160356952Y-66205137D01*
X160356952Y-66205137D02*
X160166476Y-66300375D01*
X160166476Y-66300375D02*
X159976000Y-66490851D01*
X159976000Y-66490851D02*
X159880761Y-66776566D01*
X159880761Y-66776566D02*
X159880761Y-66967042D01*
X159880761Y-66967042D02*
X159976000Y-67252756D01*
X159976000Y-67252756D02*
X160071238Y-67347994D01*
X160071238Y-67347994D02*
X160737904Y-67347994D01*
X160737904Y-67347994D02*
X160737904Y-66967042D01*
X159880761Y-68205137D02*
X161880761Y-68205137D01*
X161880761Y-68205137D02*
X159880761Y-69347994D01*
X159880761Y-69347994D02*
X161880761Y-69347994D01*
X159880761Y-70300375D02*
X161880761Y-70300375D01*
X161880761Y-70300375D02*
X161880761Y-70776565D01*
X161880761Y-70776565D02*
X161785523Y-71062280D01*
X161785523Y-71062280D02*
X161595047Y-71252756D01*
X161595047Y-71252756D02*
X161404571Y-71347994D01*
X161404571Y-71347994D02*
X161023619Y-71443232D01*
X161023619Y-71443232D02*
X160737904Y-71443232D01*
X160737904Y-71443232D02*
X160356952Y-71347994D01*
X160356952Y-71347994D02*
X160166476Y-71252756D01*
X160166476Y-71252756D02*
X159976000Y-71062280D01*
X159976000Y-71062280D02*
X159880761Y-70776565D01*
X159880761Y-70776565D02*
X159880761Y-70300375D01*
D10*
X152289711Y-90204675D02*
X152623044Y-91204675D01*
X152623044Y-91204675D02*
X152956377Y-90204675D01*
X153289711Y-91204675D02*
X153289711Y-90538008D01*
X153289711Y-90204675D02*
X153242092Y-90252294D01*
X153242092Y-90252294D02*
X153289711Y-90299913D01*
X153289711Y-90299913D02*
X153337330Y-90252294D01*
X153337330Y-90252294D02*
X153289711Y-90204675D01*
X153289711Y-90204675D02*
X153289711Y-90299913D01*
X153765901Y-90538008D02*
X153765901Y-91204675D01*
X153765901Y-90633246D02*
X153813520Y-90585627D01*
X153813520Y-90585627D02*
X153908758Y-90538008D01*
X153908758Y-90538008D02*
X154051615Y-90538008D01*
X154051615Y-90538008D02*
X154146853Y-90585627D01*
X154146853Y-90585627D02*
X154194472Y-90680865D01*
X154194472Y-90680865D02*
X154194472Y-91204675D01*
X155432568Y-91109436D02*
X155480187Y-91157056D01*
X155480187Y-91157056D02*
X155432568Y-91204675D01*
X155432568Y-91204675D02*
X155384949Y-91157056D01*
X155384949Y-91157056D02*
X155432568Y-91109436D01*
X155432568Y-91109436D02*
X155432568Y-91204675D01*
X155432568Y-90585627D02*
X155480187Y-90633246D01*
X155480187Y-90633246D02*
X155432568Y-90680865D01*
X155432568Y-90680865D02*
X155384949Y-90633246D01*
X155384949Y-90633246D02*
X155432568Y-90585627D01*
X155432568Y-90585627D02*
X155432568Y-90680865D01*
X156575425Y-90204675D02*
X157242091Y-90204675D01*
X157242091Y-90204675D02*
X156813520Y-91204675D01*
X158384949Y-90823722D02*
X159146854Y-90823722D01*
X160051615Y-90538008D02*
X160051615Y-91204675D01*
X159813520Y-90157056D02*
X159575425Y-90871341D01*
X159575425Y-90871341D02*
X160194472Y-90871341D01*
X160765901Y-90204675D02*
X160861139Y-90204675D01*
X160861139Y-90204675D02*
X160956377Y-90252294D01*
X160956377Y-90252294D02*
X161003996Y-90299913D01*
X161003996Y-90299913D02*
X161051615Y-90395151D01*
X161051615Y-90395151D02*
X161099234Y-90585627D01*
X161099234Y-90585627D02*
X161099234Y-90823722D01*
X161099234Y-90823722D02*
X161051615Y-91014198D01*
X161051615Y-91014198D02*
X161003996Y-91109436D01*
X161003996Y-91109436D02*
X160956377Y-91157056D01*
X160956377Y-91157056D02*
X160861139Y-91204675D01*
X160861139Y-91204675D02*
X160765901Y-91204675D01*
X160765901Y-91204675D02*
X160670663Y-91157056D01*
X160670663Y-91157056D02*
X160623044Y-91109436D01*
X160623044Y-91109436D02*
X160575425Y-91014198D01*
X160575425Y-91014198D02*
X160527806Y-90823722D01*
X160527806Y-90823722D02*
X160527806Y-90585627D01*
X160527806Y-90585627D02*
X160575425Y-90395151D01*
X160575425Y-90395151D02*
X160623044Y-90299913D01*
X160623044Y-90299913D02*
X160670663Y-90252294D01*
X160670663Y-90252294D02*
X160765901Y-90204675D01*
X162146854Y-90204675D02*
X162480187Y-91204675D01*
X162480187Y-91204675D02*
X162813520Y-90204675D01*
X152432568Y-92814619D02*
X152432568Y-91814619D01*
X153051615Y-92814619D02*
X152956377Y-92767000D01*
X152956377Y-92767000D02*
X152908758Y-92719380D01*
X152908758Y-92719380D02*
X152861139Y-92624142D01*
X152861139Y-92624142D02*
X152861139Y-92338428D01*
X152861139Y-92338428D02*
X152908758Y-92243190D01*
X152908758Y-92243190D02*
X152956377Y-92195571D01*
X152956377Y-92195571D02*
X153051615Y-92147952D01*
X153051615Y-92147952D02*
X153194472Y-92147952D01*
X153194472Y-92147952D02*
X153289710Y-92195571D01*
X153289710Y-92195571D02*
X153337329Y-92243190D01*
X153337329Y-92243190D02*
X153384948Y-92338428D01*
X153384948Y-92338428D02*
X153384948Y-92624142D01*
X153384948Y-92624142D02*
X153337329Y-92719380D01*
X153337329Y-92719380D02*
X153289710Y-92767000D01*
X153289710Y-92767000D02*
X153194472Y-92814619D01*
X153194472Y-92814619D02*
X153051615Y-92814619D01*
X154242091Y-92147952D02*
X154242091Y-92814619D01*
X153813520Y-92147952D02*
X153813520Y-92671761D01*
X153813520Y-92671761D02*
X153861139Y-92767000D01*
X153861139Y-92767000D02*
X153956377Y-92814619D01*
X153956377Y-92814619D02*
X154099234Y-92814619D01*
X154099234Y-92814619D02*
X154194472Y-92767000D01*
X154194472Y-92767000D02*
X154242091Y-92719380D01*
X154575425Y-92147952D02*
X154956377Y-92147952D01*
X154718282Y-91814619D02*
X154718282Y-92671761D01*
X154718282Y-92671761D02*
X154765901Y-92767000D01*
X154765901Y-92767000D02*
X154861139Y-92814619D01*
X154861139Y-92814619D02*
X154956377Y-92814619D01*
X155289711Y-92719380D02*
X155337330Y-92767000D01*
X155337330Y-92767000D02*
X155289711Y-92814619D01*
X155289711Y-92814619D02*
X155242092Y-92767000D01*
X155242092Y-92767000D02*
X155289711Y-92719380D01*
X155289711Y-92719380D02*
X155289711Y-92814619D01*
X155289711Y-92195571D02*
X155337330Y-92243190D01*
X155337330Y-92243190D02*
X155289711Y-92290809D01*
X155289711Y-92290809D02*
X155242092Y-92243190D01*
X155242092Y-92243190D02*
X155289711Y-92195571D01*
X155289711Y-92195571D02*
X155289711Y-92290809D01*
X156432568Y-91814619D02*
X157051615Y-91814619D01*
X157051615Y-91814619D02*
X156718282Y-92195571D01*
X156718282Y-92195571D02*
X156861139Y-92195571D01*
X156861139Y-92195571D02*
X156956377Y-92243190D01*
X156956377Y-92243190D02*
X157003996Y-92290809D01*
X157003996Y-92290809D02*
X157051615Y-92386047D01*
X157051615Y-92386047D02*
X157051615Y-92624142D01*
X157051615Y-92624142D02*
X157003996Y-92719380D01*
X157003996Y-92719380D02*
X156956377Y-92767000D01*
X156956377Y-92767000D02*
X156861139Y-92814619D01*
X156861139Y-92814619D02*
X156575425Y-92814619D01*
X156575425Y-92814619D02*
X156480187Y-92767000D01*
X156480187Y-92767000D02*
X156432568Y-92719380D01*
X157432568Y-92528904D02*
X157908758Y-92528904D01*
X157337330Y-92814619D02*
X157670663Y-91814619D01*
X157670663Y-91814619D02*
X158003996Y-92814619D01*
D14*
X103730080Y-58865961D02*
X104206271Y-58532628D01*
X103730080Y-58294533D02*
X104730080Y-58294533D01*
X104730080Y-58294533D02*
X104730080Y-58675485D01*
X104730080Y-58675485D02*
X104682461Y-58770723D01*
X104682461Y-58770723D02*
X104634842Y-58818342D01*
X104634842Y-58818342D02*
X104539604Y-58865961D01*
X104539604Y-58865961D02*
X104396747Y-58865961D01*
X104396747Y-58865961D02*
X104301509Y-58818342D01*
X104301509Y-58818342D02*
X104253890Y-58770723D01*
X104253890Y-58770723D02*
X104206271Y-58675485D01*
X104206271Y-58675485D02*
X104206271Y-58294533D01*
X104730080Y-59151676D02*
X103730080Y-59485009D01*
X103730080Y-59485009D02*
X104730080Y-59818342D01*
X103730080Y-60675485D02*
X103730080Y-60104057D01*
X103730080Y-60389771D02*
X104730080Y-60389771D01*
X104730080Y-60389771D02*
X104587223Y-60294533D01*
X104587223Y-60294533D02*
X104491985Y-60199295D01*
X104491985Y-60199295D02*
X104444366Y-60104057D01*
X79059912Y-81839485D02*
X79059912Y-82554215D01*
X79059912Y-82554215D02*
X79012263Y-82697161D01*
X79012263Y-82697161D02*
X78916966Y-82792459D01*
X78916966Y-82792459D02*
X78774020Y-82840107D01*
X78774020Y-82840107D02*
X78678723Y-82840107D01*
X80060534Y-82840107D02*
X79488750Y-82840107D01*
X79774642Y-82840107D02*
X79774642Y-81839485D01*
X79774642Y-81839485D02*
X79679345Y-81982431D01*
X79679345Y-81982431D02*
X79584048Y-82077729D01*
X79584048Y-82077729D02*
X79488750Y-82125377D01*
X163434819Y-80593333D02*
X164149104Y-80593333D01*
X164149104Y-80593333D02*
X164291961Y-80640952D01*
X164291961Y-80640952D02*
X164387200Y-80736190D01*
X164387200Y-80736190D02*
X164434819Y-80879047D01*
X164434819Y-80879047D02*
X164434819Y-80974285D01*
X163434819Y-80212380D02*
X163434819Y-79593333D01*
X163434819Y-79593333D02*
X163815771Y-79926666D01*
X163815771Y-79926666D02*
X163815771Y-79783809D01*
X163815771Y-79783809D02*
X163863390Y-79688571D01*
X163863390Y-79688571D02*
X163911009Y-79640952D01*
X163911009Y-79640952D02*
X164006247Y-79593333D01*
X164006247Y-79593333D02*
X164244342Y-79593333D01*
X164244342Y-79593333D02*
X164339580Y-79640952D01*
X164339580Y-79640952D02*
X164387200Y-79688571D01*
X164387200Y-79688571D02*
X164434819Y-79783809D01*
X164434819Y-79783809D02*
X164434819Y-80069523D01*
X164434819Y-80069523D02*
X164387200Y-80164761D01*
X164387200Y-80164761D02*
X164339580Y-80212380D01*
X155224819Y-82043333D02*
X155939104Y-82043333D01*
X155939104Y-82043333D02*
X156081961Y-82090952D01*
X156081961Y-82090952D02*
X156177200Y-82186190D01*
X156177200Y-82186190D02*
X156224819Y-82329047D01*
X156224819Y-82329047D02*
X156224819Y-82424285D01*
X155320057Y-81614761D02*
X155272438Y-81567142D01*
X155272438Y-81567142D02*
X155224819Y-81471904D01*
X155224819Y-81471904D02*
X155224819Y-81233809D01*
X155224819Y-81233809D02*
X155272438Y-81138571D01*
X155272438Y-81138571D02*
X155320057Y-81090952D01*
X155320057Y-81090952D02*
X155415295Y-81043333D01*
X155415295Y-81043333D02*
X155510533Y-81043333D01*
X155510533Y-81043333D02*
X155653390Y-81090952D01*
X155653390Y-81090952D02*
X156224819Y-81662380D01*
X156224819Y-81662380D02*
X156224819Y-81043333D01*
X107519818Y-72771904D02*
X108329341Y-72771904D01*
X108329341Y-72771904D02*
X108424579Y-72724285D01*
X108424579Y-72724285D02*
X108472199Y-72676666D01*
X108472199Y-72676666D02*
X108519818Y-72581428D01*
X108519818Y-72581428D02*
X108519818Y-72390952D01*
X108519818Y-72390952D02*
X108472199Y-72295714D01*
X108472199Y-72295714D02*
X108424579Y-72248095D01*
X108424579Y-72248095D02*
X108329341Y-72200476D01*
X108329341Y-72200476D02*
X107519818Y-72200476D01*
X108519818Y-71200476D02*
X108519818Y-71771904D01*
X108519818Y-71486190D02*
X107519818Y-71486190D01*
X107519818Y-71486190D02*
X107662675Y-71581428D01*
X107662675Y-71581428D02*
X107757913Y-71676666D01*
X107757913Y-71676666D02*
X107805532Y-71771904D01*
X101614818Y-75057619D02*
X101614818Y-75533809D01*
X101614818Y-75533809D02*
X100614818Y-75533809D01*
X101614818Y-74724285D02*
X100614818Y-74724285D01*
X100614818Y-74724285D02*
X101329103Y-74390952D01*
X101329103Y-74390952D02*
X100614818Y-74057619D01*
X100614818Y-74057619D02*
X101614818Y-74057619D01*
X100710056Y-73629047D02*
X100662437Y-73581428D01*
X100662437Y-73581428D02*
X100614818Y-73486190D01*
X100614818Y-73486190D02*
X100614818Y-73248095D01*
X100614818Y-73248095D02*
X100662437Y-73152857D01*
X100662437Y-73152857D02*
X100710056Y-73105238D01*
X100710056Y-73105238D02*
X100805294Y-73057619D01*
X100805294Y-73057619D02*
X100900532Y-73057619D01*
X100900532Y-73057619D02*
X101043389Y-73105238D01*
X101043389Y-73105238D02*
X101614818Y-73676666D01*
X101614818Y-73676666D02*
X101614818Y-73057619D01*
X100614818Y-72152857D02*
X100614818Y-72629047D01*
X100614818Y-72629047D02*
X101091008Y-72676666D01*
X101091008Y-72676666D02*
X101043389Y-72629047D01*
X101043389Y-72629047D02*
X100995770Y-72533809D01*
X100995770Y-72533809D02*
X100995770Y-72295714D01*
X100995770Y-72295714D02*
X101043389Y-72200476D01*
X101043389Y-72200476D02*
X101091008Y-72152857D01*
X101091008Y-72152857D02*
X101186246Y-72105238D01*
X101186246Y-72105238D02*
X101424341Y-72105238D01*
X101424341Y-72105238D02*
X101519579Y-72152857D01*
X101519579Y-72152857D02*
X101567199Y-72200476D01*
X101567199Y-72200476D02*
X101614818Y-72295714D01*
X101614818Y-72295714D02*
X101614818Y-72533809D01*
X101614818Y-72533809D02*
X101567199Y-72629047D01*
X101567199Y-72629047D02*
X101519579Y-72676666D01*
X100614818Y-71771904D02*
X100614818Y-71105238D01*
X100614818Y-71105238D02*
X101614818Y-71533809D01*
X100614818Y-70295714D02*
X100614818Y-70486190D01*
X100614818Y-70486190D02*
X100662437Y-70581428D01*
X100662437Y-70581428D02*
X100710056Y-70629047D01*
X100710056Y-70629047D02*
X100852913Y-70724285D01*
X100852913Y-70724285D02*
X101043389Y-70771904D01*
X101043389Y-70771904D02*
X101424341Y-70771904D01*
X101424341Y-70771904D02*
X101519579Y-70724285D01*
X101519579Y-70724285D02*
X101567199Y-70676666D01*
X101567199Y-70676666D02*
X101614818Y-70581428D01*
X101614818Y-70581428D02*
X101614818Y-70390952D01*
X101614818Y-70390952D02*
X101567199Y-70295714D01*
X101567199Y-70295714D02*
X101519579Y-70248095D01*
X101519579Y-70248095D02*
X101424341Y-70200476D01*
X101424341Y-70200476D02*
X101186246Y-70200476D01*
X101186246Y-70200476D02*
X101091008Y-70248095D01*
X101091008Y-70248095D02*
X101043389Y-70295714D01*
X101043389Y-70295714D02*
X100995770Y-70390952D01*
X100995770Y-70390952D02*
X100995770Y-70581428D01*
X100995770Y-70581428D02*
X101043389Y-70676666D01*
X101043389Y-70676666D02*
X101091008Y-70724285D01*
X101091008Y-70724285D02*
X101186246Y-70771904D01*
X100614818Y-69914761D02*
X100614818Y-69343333D01*
X101614818Y-69629047D02*
X100614818Y-69629047D01*
X85999580Y-88596666D02*
X86047200Y-88644285D01*
X86047200Y-88644285D02*
X86094819Y-88787142D01*
X86094819Y-88787142D02*
X86094819Y-88882380D01*
X86094819Y-88882380D02*
X86047200Y-89025237D01*
X86047200Y-89025237D02*
X85951961Y-89120475D01*
X85951961Y-89120475D02*
X85856723Y-89168094D01*
X85856723Y-89168094D02*
X85666247Y-89215713D01*
X85666247Y-89215713D02*
X85523390Y-89215713D01*
X85523390Y-89215713D02*
X85332914Y-89168094D01*
X85332914Y-89168094D02*
X85237676Y-89120475D01*
X85237676Y-89120475D02*
X85142438Y-89025237D01*
X85142438Y-89025237D02*
X85094819Y-88882380D01*
X85094819Y-88882380D02*
X85094819Y-88787142D01*
X85094819Y-88787142D02*
X85142438Y-88644285D01*
X85142438Y-88644285D02*
X85190057Y-88596666D01*
X86094819Y-87644285D02*
X86094819Y-88215713D01*
X86094819Y-87929999D02*
X85094819Y-87929999D01*
X85094819Y-87929999D02*
X85237676Y-88025237D01*
X85237676Y-88025237D02*
X85332914Y-88120475D01*
X85332914Y-88120475D02*
X85380533Y-88215713D01*
X148453333Y-103529580D02*
X148405714Y-103577200D01*
X148405714Y-103577200D02*
X148262857Y-103624819D01*
X148262857Y-103624819D02*
X148167619Y-103624819D01*
X148167619Y-103624819D02*
X148024762Y-103577200D01*
X148024762Y-103577200D02*
X147929524Y-103481961D01*
X147929524Y-103481961D02*
X147881905Y-103386723D01*
X147881905Y-103386723D02*
X147834286Y-103196247D01*
X147834286Y-103196247D02*
X147834286Y-103053390D01*
X147834286Y-103053390D02*
X147881905Y-102862914D01*
X147881905Y-102862914D02*
X147929524Y-102767676D01*
X147929524Y-102767676D02*
X148024762Y-102672438D01*
X148024762Y-102672438D02*
X148167619Y-102624819D01*
X148167619Y-102624819D02*
X148262857Y-102624819D01*
X148262857Y-102624819D02*
X148405714Y-102672438D01*
X148405714Y-102672438D02*
X148453333Y-102720057D01*
X149310476Y-102958152D02*
X149310476Y-103624819D01*
X149072381Y-102577200D02*
X148834286Y-103291485D01*
X148834286Y-103291485D02*
X149453333Y-103291485D01*
X112094819Y-56386666D02*
X111618628Y-56719999D01*
X112094819Y-56958094D02*
X111094819Y-56958094D01*
X111094819Y-56958094D02*
X111094819Y-56577142D01*
X111094819Y-56577142D02*
X111142438Y-56481904D01*
X111142438Y-56481904D02*
X111190057Y-56434285D01*
X111190057Y-56434285D02*
X111285295Y-56386666D01*
X111285295Y-56386666D02*
X111428152Y-56386666D01*
X111428152Y-56386666D02*
X111523390Y-56434285D01*
X111523390Y-56434285D02*
X111571009Y-56481904D01*
X111571009Y-56481904D02*
X111618628Y-56577142D01*
X111618628Y-56577142D02*
X111618628Y-56958094D01*
X112094819Y-55434285D02*
X112094819Y-56005713D01*
X112094819Y-55719999D02*
X111094819Y-55719999D01*
X111094819Y-55719999D02*
X111237676Y-55815237D01*
X111237676Y-55815237D02*
X111332914Y-55910475D01*
X111332914Y-55910475D02*
X111380533Y-56005713D01*
X127179580Y-68006666D02*
X127227200Y-68054285D01*
X127227200Y-68054285D02*
X127274819Y-68197142D01*
X127274819Y-68197142D02*
X127274819Y-68292380D01*
X127274819Y-68292380D02*
X127227200Y-68435237D01*
X127227200Y-68435237D02*
X127131961Y-68530475D01*
X127131961Y-68530475D02*
X127036723Y-68578094D01*
X127036723Y-68578094D02*
X126846247Y-68625713D01*
X126846247Y-68625713D02*
X126703390Y-68625713D01*
X126703390Y-68625713D02*
X126512914Y-68578094D01*
X126512914Y-68578094D02*
X126417676Y-68530475D01*
X126417676Y-68530475D02*
X126322438Y-68435237D01*
X126322438Y-68435237D02*
X126274819Y-68292380D01*
X126274819Y-68292380D02*
X126274819Y-68197142D01*
X126274819Y-68197142D02*
X126322438Y-68054285D01*
X126322438Y-68054285D02*
X126370057Y-68006666D01*
X126274819Y-67101904D02*
X126274819Y-67578094D01*
X126274819Y-67578094D02*
X126751009Y-67625713D01*
X126751009Y-67625713D02*
X126703390Y-67578094D01*
X126703390Y-67578094D02*
X126655771Y-67482856D01*
X126655771Y-67482856D02*
X126655771Y-67244761D01*
X126655771Y-67244761D02*
X126703390Y-67149523D01*
X126703390Y-67149523D02*
X126751009Y-67101904D01*
X126751009Y-67101904D02*
X126846247Y-67054285D01*
X126846247Y-67054285D02*
X127084342Y-67054285D01*
X127084342Y-67054285D02*
X127179580Y-67101904D01*
X127179580Y-67101904D02*
X127227200Y-67149523D01*
X127227200Y-67149523D02*
X127274819Y-67244761D01*
X127274819Y-67244761D02*
X127274819Y-67482856D01*
X127274819Y-67482856D02*
X127227200Y-67578094D01*
X127227200Y-67578094D02*
X127179580Y-67625713D01*
X150429580Y-89334166D02*
X150477200Y-89381785D01*
X150477200Y-89381785D02*
X150524819Y-89524642D01*
X150524819Y-89524642D02*
X150524819Y-89619880D01*
X150524819Y-89619880D02*
X150477200Y-89762737D01*
X150477200Y-89762737D02*
X150381961Y-89857975D01*
X150381961Y-89857975D02*
X150286723Y-89905594D01*
X150286723Y-89905594D02*
X150096247Y-89953213D01*
X150096247Y-89953213D02*
X149953390Y-89953213D01*
X149953390Y-89953213D02*
X149762914Y-89905594D01*
X149762914Y-89905594D02*
X149667676Y-89857975D01*
X149667676Y-89857975D02*
X149572438Y-89762737D01*
X149572438Y-89762737D02*
X149524819Y-89619880D01*
X149524819Y-89619880D02*
X149524819Y-89524642D01*
X149524819Y-89524642D02*
X149572438Y-89381785D01*
X149572438Y-89381785D02*
X149620057Y-89334166D01*
X149524819Y-88477023D02*
X149524819Y-88667499D01*
X149524819Y-88667499D02*
X149572438Y-88762737D01*
X149572438Y-88762737D02*
X149620057Y-88810356D01*
X149620057Y-88810356D02*
X149762914Y-88905594D01*
X149762914Y-88905594D02*
X149953390Y-88953213D01*
X149953390Y-88953213D02*
X150334342Y-88953213D01*
X150334342Y-88953213D02*
X150429580Y-88905594D01*
X150429580Y-88905594D02*
X150477200Y-88857975D01*
X150477200Y-88857975D02*
X150524819Y-88762737D01*
X150524819Y-88762737D02*
X150524819Y-88572261D01*
X150524819Y-88572261D02*
X150477200Y-88477023D01*
X150477200Y-88477023D02*
X150429580Y-88429404D01*
X150429580Y-88429404D02*
X150334342Y-88381785D01*
X150334342Y-88381785D02*
X150096247Y-88381785D01*
X150096247Y-88381785D02*
X150001009Y-88429404D01*
X150001009Y-88429404D02*
X149953390Y-88477023D01*
X149953390Y-88477023D02*
X149905771Y-88572261D01*
X149905771Y-88572261D02*
X149905771Y-88762737D01*
X149905771Y-88762737D02*
X149953390Y-88857975D01*
X149953390Y-88857975D02*
X150001009Y-88905594D01*
X150001009Y-88905594D02*
X150096247Y-88953213D01*
D15*
X122238333Y-76854318D02*
X121633571Y-76854318D01*
X121633571Y-76854318D02*
X121633571Y-75584318D01*
X123326905Y-76854318D02*
X122601190Y-76854318D01*
X122964047Y-76854318D02*
X122964047Y-75584318D01*
X122964047Y-75584318D02*
X122843095Y-75765746D01*
X122843095Y-75765746D02*
X122722143Y-75886699D01*
X122722143Y-75886699D02*
X122601190Y-75947175D01*
D14*
X94819580Y-64586666D02*
X94867200Y-64634285D01*
X94867200Y-64634285D02*
X94914819Y-64777142D01*
X94914819Y-64777142D02*
X94914819Y-64872380D01*
X94914819Y-64872380D02*
X94867200Y-65015237D01*
X94867200Y-65015237D02*
X94771961Y-65110475D01*
X94771961Y-65110475D02*
X94676723Y-65158094D01*
X94676723Y-65158094D02*
X94486247Y-65205713D01*
X94486247Y-65205713D02*
X94343390Y-65205713D01*
X94343390Y-65205713D02*
X94152914Y-65158094D01*
X94152914Y-65158094D02*
X94057676Y-65110475D01*
X94057676Y-65110475D02*
X93962438Y-65015237D01*
X93962438Y-65015237D02*
X93914819Y-64872380D01*
X93914819Y-64872380D02*
X93914819Y-64777142D01*
X93914819Y-64777142D02*
X93962438Y-64634285D01*
X93962438Y-64634285D02*
X94010057Y-64586666D01*
X93914819Y-64253332D02*
X93914819Y-63634285D01*
X93914819Y-63634285D02*
X94295771Y-63967618D01*
X94295771Y-63967618D02*
X94295771Y-63824761D01*
X94295771Y-63824761D02*
X94343390Y-63729523D01*
X94343390Y-63729523D02*
X94391009Y-63681904D01*
X94391009Y-63681904D02*
X94486247Y-63634285D01*
X94486247Y-63634285D02*
X94724342Y-63634285D01*
X94724342Y-63634285D02*
X94819580Y-63681904D01*
X94819580Y-63681904D02*
X94867200Y-63729523D01*
X94867200Y-63729523D02*
X94914819Y-63824761D01*
X94914819Y-63824761D02*
X94914819Y-64110475D01*
X94914819Y-64110475D02*
X94867200Y-64205713D01*
X94867200Y-64205713D02*
X94819580Y-64253332D01*
X148759580Y-66439166D02*
X148807200Y-66486785D01*
X148807200Y-66486785D02*
X148854819Y-66629642D01*
X148854819Y-66629642D02*
X148854819Y-66724880D01*
X148854819Y-66724880D02*
X148807200Y-66867737D01*
X148807200Y-66867737D02*
X148711961Y-66962975D01*
X148711961Y-66962975D02*
X148616723Y-67010594D01*
X148616723Y-67010594D02*
X148426247Y-67058213D01*
X148426247Y-67058213D02*
X148283390Y-67058213D01*
X148283390Y-67058213D02*
X148092914Y-67010594D01*
X148092914Y-67010594D02*
X147997676Y-66962975D01*
X147997676Y-66962975D02*
X147902438Y-66867737D01*
X147902438Y-66867737D02*
X147854819Y-66724880D01*
X147854819Y-66724880D02*
X147854819Y-66629642D01*
X147854819Y-66629642D02*
X147902438Y-66486785D01*
X147902438Y-66486785D02*
X147950057Y-66439166D01*
X147854819Y-66105832D02*
X147854819Y-65439166D01*
X147854819Y-65439166D02*
X148854819Y-65867737D01*
X95298094Y-96975180D02*
X95298094Y-97975180D01*
X95298094Y-97975180D02*
X95059999Y-97975180D01*
X95059999Y-97975180D02*
X94917142Y-97927561D01*
X94917142Y-97927561D02*
X94821904Y-97832323D01*
X94821904Y-97832323D02*
X94774285Y-97737085D01*
X94774285Y-97737085D02*
X94726666Y-97546609D01*
X94726666Y-97546609D02*
X94726666Y-97403752D01*
X94726666Y-97403752D02*
X94774285Y-97213276D01*
X94774285Y-97213276D02*
X94821904Y-97118038D01*
X94821904Y-97118038D02*
X94917142Y-97022800D01*
X94917142Y-97022800D02*
X95059999Y-96975180D01*
X95059999Y-96975180D02*
X95298094Y-96975180D01*
X93774285Y-96975180D02*
X94345713Y-96975180D01*
X94059999Y-96975180D02*
X94059999Y-97975180D01*
X94059999Y-97975180D02*
X94155237Y-97832323D01*
X94155237Y-97832323D02*
X94250475Y-97737085D01*
X94250475Y-97737085D02*
X94345713Y-97689466D01*
X99759580Y-65546666D02*
X99807200Y-65594285D01*
X99807200Y-65594285D02*
X99854819Y-65737142D01*
X99854819Y-65737142D02*
X99854819Y-65832380D01*
X99854819Y-65832380D02*
X99807200Y-65975237D01*
X99807200Y-65975237D02*
X99711961Y-66070475D01*
X99711961Y-66070475D02*
X99616723Y-66118094D01*
X99616723Y-66118094D02*
X99426247Y-66165713D01*
X99426247Y-66165713D02*
X99283390Y-66165713D01*
X99283390Y-66165713D02*
X99092914Y-66118094D01*
X99092914Y-66118094D02*
X98997676Y-66070475D01*
X98997676Y-66070475D02*
X98902438Y-65975237D01*
X98902438Y-65975237D02*
X98854819Y-65832380D01*
X98854819Y-65832380D02*
X98854819Y-65737142D01*
X98854819Y-65737142D02*
X98902438Y-65594285D01*
X98902438Y-65594285D02*
X98950057Y-65546666D01*
X98950057Y-65165713D02*
X98902438Y-65118094D01*
X98902438Y-65118094D02*
X98854819Y-65022856D01*
X98854819Y-65022856D02*
X98854819Y-64784761D01*
X98854819Y-64784761D02*
X98902438Y-64689523D01*
X98902438Y-64689523D02*
X98950057Y-64641904D01*
X98950057Y-64641904D02*
X99045295Y-64594285D01*
X99045295Y-64594285D02*
X99140533Y-64594285D01*
X99140533Y-64594285D02*
X99283390Y-64641904D01*
X99283390Y-64641904D02*
X99854819Y-65213332D01*
X99854819Y-65213332D02*
X99854819Y-64594285D01*
D16*
%TO.C,RV1*%
X99397000Y-56960000D02*
G75*
G02*
X99143000Y-56960000I-127000J0D01*
G01*
X99143000Y-56960000D02*
G75*
G02*
X99397000Y-56960000I127000J0D01*
G01*
X100413000Y-56083000D02*
X100413000Y-62839400D01*
X100413000Y-62839400D02*
X101359565Y-62839400D01*
X107956800Y-62839400D02*
X107956800Y-59945910D01*
X107956800Y-56083000D02*
X102623784Y-56083000D01*
X101356216Y-56083000D02*
X100413000Y-56083000D01*
X107956800Y-58974090D02*
X107956800Y-56083000D01*
X102620435Y-62839400D02*
X107956800Y-62839400D01*
D17*
%TO.C,J1*%
X68180000Y-70710000D02*
X82580000Y-70710000D01*
X68180000Y-79710000D02*
X68180000Y-70710000D01*
X76330000Y-79710000D02*
X68180000Y-79710000D01*
X82580000Y-70710000D02*
X82580000Y-72560000D01*
X82580000Y-77760000D02*
X82580000Y-79710000D01*
X82580000Y-79710000D02*
X81430000Y-79710000D01*
D18*
X84080000Y-75210000D02*
G75*
G02*
X83680000Y-75210000I-200000J0D01*
G01*
X83680000Y-75210000D02*
G75*
G02*
X84080000Y-75210000I200000J0D01*
G01*
D19*
%TO.C,J3*%
X159560000Y-73200000D02*
X160890000Y-73200000D01*
X159560000Y-74530000D02*
X159560000Y-73200000D01*
X159560000Y-75800000D02*
X159560000Y-86020000D01*
X159560000Y-75800000D02*
X162220000Y-75800000D01*
X159560000Y-86020000D02*
X162220000Y-86020000D01*
X162220000Y-75800000D02*
X162220000Y-86020000D01*
%TO.C,J2*%
X151690000Y-73200000D02*
X153020000Y-73200000D01*
X151690000Y-74530000D02*
X151690000Y-73200000D01*
X151690000Y-75800000D02*
X151690000Y-86020000D01*
X151690000Y-75800000D02*
X154350000Y-75800000D01*
X151690000Y-86020000D02*
X154350000Y-86020000D01*
X154350000Y-75800000D02*
X154350000Y-86020000D01*
D20*
%TO.C,U1*%
X102715000Y-74115000D02*
X102715000Y-69214999D01*
X113414998Y-69214999D02*
X102715000Y-69214999D01*
X113414998Y-70477001D02*
X102715000Y-70477001D01*
X113414998Y-74115000D02*
X102715000Y-74115000D01*
X113414998Y-74115000D02*
X113414998Y-69214999D01*
D21*
G36*
X103746999Y-74137001D02*
G01*
X102715000Y-74137001D01*
X102715000Y-73026000D01*
X103746999Y-73026000D01*
X103746999Y-74137001D01*
G37*
D17*
%TO.C,C1*%
X87450000Y-76270000D02*
X87450000Y-90270000D01*
X87450000Y-90270000D02*
X94380000Y-90270000D01*
X90450000Y-73270000D02*
X87450000Y-76270000D01*
X94380000Y-73270000D02*
X90450000Y-73270000D01*
X97520000Y-90270000D02*
X104450000Y-90270000D01*
X101450000Y-73270000D02*
X97520000Y-73270000D01*
X104450000Y-76270000D02*
X101450000Y-73270000D01*
X104450000Y-90270000D02*
X104450000Y-76270000D01*
D20*
X98300000Y-72120000D02*
G75*
G02*
X98100000Y-72120000I-100000J0D01*
G01*
X98100000Y-72120000D02*
G75*
G02*
X98300000Y-72120000I100000J0D01*
G01*
D19*
%TO.C,C4*%
X144126248Y-102160000D02*
X145548752Y-102160000D01*
X144126248Y-103980000D02*
X145548752Y-103980000D01*
%TO.C,R1*%
X110670000Y-60487064D02*
X110670000Y-59032936D01*
X112490000Y-60487064D02*
X112490000Y-59032936D01*
D17*
%TO.C,C5*%
X128620000Y-59220000D02*
X128620000Y-73220000D01*
X128620000Y-73220000D02*
X131620000Y-76220000D01*
X131620000Y-76220000D02*
X135550000Y-76220000D01*
X135550000Y-59220000D02*
X128620000Y-59220000D01*
X138690000Y-76220000D02*
X142620000Y-76220000D01*
X142620000Y-76220000D02*
X145620000Y-73220000D01*
X145620000Y-59220000D02*
X138690000Y-59220000D01*
X145620000Y-73220000D02*
X145620000Y-59220000D01*
D20*
X134970000Y-77370000D02*
G75*
G02*
X134770000Y-77370000I-100000J0D01*
G01*
X134770000Y-77370000D02*
G75*
G02*
X134970000Y-77370000I100000J0D01*
G01*
D19*
%TO.C,C6*%
X149162500Y-88912776D02*
X149162500Y-89422224D01*
X148117500Y-88912776D02*
X148117500Y-89422224D01*
D11*
%TO.C,L1*%
X117890000Y-84230000D02*
X122970000Y-79150000D01*
X117890000Y-99470000D02*
X122970000Y-104550000D01*
X122970000Y-79150000D02*
X133130000Y-79150000D01*
X122970000Y-104550000D02*
X133130000Y-104550000D01*
X133130000Y-79150000D02*
X138210000Y-84230000D01*
X133130000Y-104550000D02*
X138210000Y-99470000D01*
D19*
%TO.C,C3*%
X93750000Y-69258752D02*
X93750000Y-67836248D01*
X95570000Y-69258752D02*
X95570000Y-67836248D01*
%TO.C,C7*%
X147570000Y-71093752D02*
X147570000Y-69671248D01*
X149390000Y-71093752D02*
X149390000Y-69671248D01*
D16*
%TO.C,D1*%
X97249699Y-94253001D02*
X97249699Y-95567259D01*
X97249699Y-99412741D02*
X97249699Y-100726999D01*
X97249699Y-100726999D02*
X105633701Y-100726999D01*
X105633701Y-94253001D02*
X97249699Y-94253001D01*
X105633701Y-95567259D02*
X105633701Y-94253001D01*
X105633701Y-100726999D02*
X105633701Y-99412741D01*
X106093440Y-97490000D02*
X107284701Y-97490000D01*
X106268701Y-98125000D02*
X106268701Y-96855000D01*
X107030701Y-97490000D02*
X106268701Y-96855000D01*
X107030701Y-97490000D02*
X106268701Y-96982000D01*
X107030701Y-97490000D02*
X106268701Y-97109000D01*
X107030701Y-97490000D02*
X106268701Y-97236000D01*
X107030701Y-97490000D02*
X106268701Y-97363000D01*
X107030701Y-97490000D02*
X106268701Y-97617000D01*
X107030701Y-97490000D02*
X106268701Y-97744000D01*
X107030701Y-97490000D02*
X106268701Y-97871000D01*
X107030701Y-97490000D02*
X106268701Y-97998000D01*
X107030701Y-97490000D02*
X106268701Y-98125000D01*
X107030701Y-98125000D02*
X107030701Y-96855000D01*
D19*
%TO.C,C2*%
X98990000Y-69008767D02*
X98990000Y-68716233D01*
X100010000Y-69008767D02*
X100010000Y-68716233D01*
%TD*%
M02*
